<svg width="300" height="300" xmlns="http://www.w3.org/2000/svg" viewBox="0 0 212.88 115.85"><defs><style>.cls-1{fill:#ff6700;}.cls-2{fill:#ff6e1d;}.cls-3{fill:#aaa;}</style></defs><g id="Layer_2" data-name="Layer 2"><g id="Layer_1-2" data-name="Layer 1"><path d="M0,112.28H5.7c2.64,0,3.41-1.15,3.41-3.75,0-2.26-.38-3.7-2.13-5.24l-3.19-2.85C1.45,98.36,0,96.61,0,92.05c0-4.25,1.83-6.34,6.56-6.34h6.08V89H7.41C5.15,89,4,89.42,4,92.18a6.33,6.33,0,0,0,2,5.24l3.07,2.72c2.43,2.17,4,3.54,4,8.39,0,4.68-1.4,7-6.21,7H0Z"/><path d="M20.82,115.51V89H14.6V85.71H30.86V89H24.65v26.56Z"/><path d="M50.4,100.61c0,11.41-1,15.24-9.24,15.24s-9.24-3.83-9.24-15.24S33,85.37,41.16,85.37,50.4,89.2,50.4,100.61Zm-9.24,12c5,0,5.24-3.2,5.24-12s-.26-12-5.24-12-5.23,3.23-5.23,12S36.18,112.62,41.16,112.62Z"/><path d="M55.08,89.84c0-3.06,1.53-4.13,4.17-4.13h4.6c5.28,0,6.56,3.53,6.56,9.07,0,5.75-1.28,8.85-4.81,9.45v.21l5.49,11.07H66.75l-4.73-10a8.49,8.49,0,0,1-.85-2.81v-.39c0-.89.34-1.28,1.28-1.28h.68c3.15,0,3.28-2.59,3.28-6.21S66.15,89,62.57,89H60.83c-1.49,0-1.92.42-1.92,1.91v24.65H55.08Z"/><path d="M79.09,115.51c-2.64,0-4.17-1-4.17-4.08V89.84c0-3.06,1.53-4.13,4.17-4.13h7.79V89H80.67c-1.5,0-1.92.42-1.92,1.91V98.7h7.7v3.23h-7.7v8.43c0,1.49.42,1.92,1.92,1.92h6.38v3.23Z"/><path d="M91.31,115.51V89.84c0-3.06,1.53-4.13,4.17-4.13h7.87V89h-6.3c-1.49,0-1.91.42-1.91,1.91V99h6.09v3.24H95.14v13.32Z"/><path d="M106.54,89.84c0-3.06,1.54-4.13,4.18-4.13h4.59c5.28,0,6.56,3.53,6.56,9.07,0,5.75-1.28,8.85-4.81,9.45v.21l5.49,11.07h-4.34l-4.73-10a8.49,8.49,0,0,1-.85-2.81v-.39c0-.89.34-1.28,1.28-1.28h.68c3.15,0,3.28-2.59,3.28-6.21S117.61,89,114,89h-1.75c-1.49,0-1.91.42-1.91,1.91v24.65h-3.84Z"/><path d="M144,100.61c0,11.41-1,15.24-9.24,15.24s-9.24-3.83-9.24-15.24,1.11-15.24,9.24-15.24S144,89.2,144,100.61Zm-9.24,12c5,0,5.23-3.2,5.23-12s-.25-12-5.23-12-5.24,3.23-5.24,12S129.79,112.62,134.77,112.62Z"/><path d="M165.88,112.11c0,3.15-2.08,3.74-3.78,3.74-2,0-3.88-.34-4.43-3.4l-4-22.35c-.08-.51-.25-.9-.68-.9s-.59.34-.59,1v25.29h-3.66V88.9c0-2.93,2.21-3.53,3.87-3.53,2.17,0,3.87.34,4.38,3.24L161,111.08c.09.47.21.94.64.94s.55-.68.55-.94V85.71h3.66Z"/><path d="M174.86,115.51V89h-6.21V85.71h16.26V89H178.7v26.56Z"/><path class="cls-1" d="M207,115.51l-3.23-10.73-3.24,10.73h-5.87l5.49-15.11L195,85.71h5.87l2.9,10.3,2.89-10.3h5.88l-5.15,14.69,5.49,15.11Z"/><path class="cls-2" d="M97.56,63.83a6.85,6.85,0,0,0,9.61,1.25l44.13-34a.12.12,0,0,0,0-.16.13.13,0,0,0-.17-.06L100.22,53.39A6.84,6.84,0,0,0,97.56,63.83Z"/><path class="cls-3" d="M143.2,29.94a6,6,0,0,1-7.72-2.62c-3.76-7.19-9.2-12.65-18-16.61-11.49-5.15-25.9-4.09-38.07,4.6A40.63,40.63,0,0,0,63.18,51.16,41.88,41.88,0,0,0,65.54,62.1,42.55,42.55,0,0,1,62,50.36,43.66,43.66,0,0,1,76.2,11.45c24-20.79,59-11.68,72.11,14.59C148.75,26.91,143.2,29.94,143.2,29.94Z"/></g></g></svg>
