<svg width="50" height="50" xmlns="http://www.w3.org/2000/svg">

 <g>
  <title>Layer 1</title>
  <path stroke="null" id="svg_12" fill="#ff6e1d" d="m20.23074,40.45591a3.71,3.71 0 0 0 5.2,0.67l23.87,-18.39a0.07,0.07 0 0 0 0,-0.08a0.07,0.07 0 0 0 -0.1,0l-27.53,12.15a3.71,3.71 0 0 0 -1.44,5.65z" class="cls-2"/>
  <path stroke="null" id="svg_13" fill="#aaa" d="m44.92074,22.11591a3.22,3.22 0 0 1 -4.18,-1.41a19.21,19.21 0 0 0 -9.77,-9a20.77,20.77 0 0 0 -20.58,2.5a22,22 0 0 0 -8.75,19.39a22.69,22.69 0 0 0 1.27,5.92a23.29,23.29 0 0 1 -1.92,-6.35a23.65,23.65 0 0 1 7.69,-21c13,-11.24 31.89,-6.32 39,7.9c0.24,0.42 -2.76,2.05 -2.76,2.05z" class="cls-3"/>
 </g>
</svg>