<?xml version="1.0" encoding="UTF-8"?>
<svg width="43px" height="43px" viewBox="0 0 43 43" version="1.1" xmlns="http://www.w3.org/2000/svg" xmlns:xlink="http://www.w3.org/1999/xlink">
    <!-- Generator: Sketch 52.3 (67297) - http://www.bohemiancoding.com/sketch -->
    <title>drmax-media-app</title>
    <desc>Created with Sketch.</desc>
    <defs>
        <polygon id="path-1" points="6.4e-05 0.196864 42.042944 0.196864 42.042944 42.24 6.4e-05 42.24"></polygon>
        <polygon id="path-3" points="0 42.3632 42.0432 42.3632 42.0432 0.32 0 0.32"></polygon>
    </defs>
    <g id="Components" stroke="none" stroke-width="1" fill="none" fill-rule="evenodd">
        <g id="components/footer" transform="translate(-200.000000, -308.000000)">
            <g id="logos/appIcons/drMaxMediaIco" transform="translate(198.000000, 305.000000)">
                <g id="Group-21" transform="translate(2.880000, 2.880000)">
                    <g id="Group-3" transform="translate(0.000000, 0.123200)">
                        <mask id="mask-2" fill="white">
                            <use xlink:href="#path-1"></use>
                        </mask>
                        <g id="Clip-2"></g>
                        <path d="M37.536704,42.240064 L4.506304,42.240064 C2.017664,42.240064 6.4e-05,40.222464 6.4e-05,37.733824 L6.4e-05,4.703104 C6.4e-05,2.214464 2.017664,0.196864 4.506304,0.196864 L37.536704,0.196864 C40.025344,0.196864 42.042944,2.214464 42.042944,4.703104 L42.042944,37.733824 C42.042944,40.222464 40.025344,42.240064 37.536704,42.240064" id="Fill-1" fill="#D2D2D2" mask="url(#mask-2)"></path>
                    </g>
                    <path d="M13.184192,30.458592 C13.141952,29.665632 13.091392,28.704672 13.091392,28.004512 L13.074432,28.004512 C12.872192,28.662432 12.644352,29.379232 12.357632,30.163232 L11.354112,32.920672 L10.797632,32.920672 L9.870272,30.213792 C9.600512,29.404512 9.380992,28.679072 9.220672,28.004512 L9.204032,28.004512 C9.187072,28.712992 9.144832,29.657312 9.094592,30.517792 L8.942592,32.954592 L8.242752,32.954592 L8.638912,27.271072 L9.575232,27.271072 L10.544832,30.019872 C10.780672,30.719712 10.966272,31.344032 11.118272,31.934112 L11.135232,31.934112 C11.286592,31.360672 11.489152,30.736672 11.742272,30.019872 L12.754112,27.271072 L13.690112,27.271072 L14.044352,32.954592 L13.319232,32.954592 L13.184192,30.458592 Z" id="Fill-4" fill="#3BA130"></path>
                    <path d="M18.81824,25.980768 L17.73888,26.967328 L17.14016,26.967328 L17.92416,25.980768 L18.81824,25.980768 Z M18.95296,30.289888 L16.752,30.289888 L16.752,32.338848 L19.2144,32.338848 L19.2144,32.954528 L16.01024,32.954528 L16.01024,27.271008 L19.088,27.271008 L19.088,27.886368 L16.752,27.886368 L16.752,29.682528 L18.95296,29.682528 L18.95296,30.289888 Z" id="Fill-6" fill="#3BA130"></path>
                    <path d="M21.7448,32.381088 C21.9304,32.406368 22.20048,32.414688 22.48688,32.414688 C24.06384,32.414688 24.90736,31.537888 24.90736,30.002848 C24.91568,28.662368 24.15664,27.810848 22.60496,27.810848 C22.22576,27.810848 21.93872,27.844128 21.7448,27.886368 L21.7448,32.381088 Z M21.01136,27.355168 C21.45808,27.279648 21.9896,27.228768 22.57136,27.228768 C23.62544,27.228768 24.37616,27.481568 24.87344,27.936928 C25.388,28.400928 25.68304,29.058528 25.68304,29.977888 C25.68304,30.905568 25.388,31.664288 24.86512,32.187168 C24.32528,32.718368 23.44816,33.005088 22.34352,33.005088 C21.81232,33.005088 21.38224,32.979808 21.01136,32.937568 L21.01136,27.355168 Z" id="Fill-8" fill="#3BA130"></path>
                    <mask id="mask-4" fill="white">
                        <use xlink:href="#path-3"></use>
                    </mask>
                    <g id="Clip-11"></g>
                    <polygon id="Fill-10" fill="#3BA130" mask="url(#mask-4)" points="27.46336 32.95456 28.20512 32.95456 28.20512 27.27104 27.46336 27.27104"></polygon>
                    <path d="M33.122304,30.59328 L32.557184,28.95744 C32.430784,28.58656 32.346304,28.24928 32.262144,27.92 L32.245184,27.92 C32.160704,28.24928 32.076544,28.6032 31.958464,28.9488 L31.401984,30.59328 L33.122304,30.59328 Z M31.249984,31.16672 L30.659904,32.95456 L29.901184,32.95456 L31.840384,27.27104 L32.717184,27.27104 L34.657024,32.95456 L33.872704,32.95456 L33.265344,31.16672 L31.249984,31.16672 Z" id="Fill-12" fill="#3BA130" mask="url(#mask-4)"></path>
                    <path d="M32.569184,21.707648 L9.473824,21.707648 C6.195104,21.707648 3.527584,19.039808 3.527584,15.761088 C3.527584,12.482368 6.195104,9.814848 9.473824,9.814848 L32.569184,9.814848 C35.847904,9.814848 38.515424,12.482368 38.515424,15.761088 C38.515424,19.039808 35.847904,21.707648 32.569184,21.707648" id="Fill-13" fill="#FFFFFF" mask="url(#mask-4)"></path>
                    <path d="M34.376704,12.822944 L33.526144,12.822944 L33.526144,11.972704 C33.526144,11.670944 33.280704,11.425504 32.979264,11.425504 C32.677504,11.425504 32.432384,11.670944 32.432384,11.972704 L32.432384,12.822944 L31.581824,12.822944 C31.280064,12.822944 31.034944,13.068704 31.034944,13.370144 C31.034944,13.671584 31.280064,13.917024 31.581824,13.917024 L32.432384,13.917024 L32.432384,14.767264 C32.432384,15.069344 32.677504,15.314464 32.979264,15.314464 C33.280704,15.314464 33.526144,15.069344 33.526144,14.767264 L33.526144,13.917024 L34.376704,13.917024 C34.678144,13.917024 34.923584,13.671584 34.923584,13.370144 C34.923584,13.068704 34.678144,12.822944 34.376704,12.822944" id="Fill-14" fill="#78BE20" mask="url(#mask-4)"></path>
                    <path d="M9.767616,17.503264 L9.330816,17.503264 L9.330816,14.178464 L9.767616,14.178464 C10.928896,14.178464 11.239296,14.745824 11.239296,15.840864 C11.239296,16.936224 10.919616,17.503264 9.767616,17.503264 M9.740096,13.088864 L8.179776,13.088864 C8.086016,13.088864 8.009856,13.175904 8.009856,13.283104 L8.009856,18.396384 C8.009856,18.503584 8.086016,18.590304 8.179776,18.590304 L9.740096,18.589984 C11.383296,18.589984 12.590976,17.873504 12.590976,15.817184 C12.590976,13.690144 11.417536,13.088864 9.740096,13.088864" id="Fill-15" fill="#E4002B" mask="url(#mask-4)"></path>
                    <path d="M14.230752,15.021408 L14.230752,14.693728 C14.230752,14.586528 14.154912,14.499488 14.060832,14.499488 L13.202592,14.499488 C13.108512,14.499488 13.032672,14.586528 13.032672,14.693728 L13.032672,18.396448 C13.032672,18.503648 13.108512,18.590368 13.202592,18.590368 L14.060832,18.590368 C14.154912,18.590368 14.230752,18.503648 14.230752,18.396448 L14.230752,16.725088 C14.230752,15.685408 14.855712,15.355488 15.464352,15.525408 C15.549472,15.549088 15.638432,15.505248 15.666272,15.421408 L15.918432,14.665888 C15.939552,14.603488 15.906592,14.536608 15.845472,14.513568 C15.448032,14.363488 14.691872,14.287968 14.230752,15.021408" id="Fill-16" fill="#E4002B" mask="url(#mask-4)"></path>
                    <path d="M22.868256,18.422944 L22.399456,13.286624 C22.389536,13.179424 22.305376,13.092704 22.211616,13.092704 L20.941856,13.092704 C20.848096,13.092704 20.747936,13.179424 20.718176,13.286624 L19.814176,16.543584 L18.910176,13.286624 C18.880416,13.179424 18.780256,13.092704 18.686496,13.092704 L17.416736,13.092704 C17.322656,13.092704 17.238496,13.179424 17.228896,13.286624 L16.760096,18.422944 C16.750176,18.530144 16.818336,18.590304 16.912416,18.590304 L17.782816,18.590304 C17.876896,18.590304 17.961056,18.530144 17.970656,18.422944 L18.328416,15.075744 L19.250336,18.422944 C19.274656,18.509984 19.319456,18.590304 19.416096,18.590304 L20.212256,18.590304 C20.314016,18.590304 20.353696,18.509984 20.378016,18.422944 L21.299936,15.075744 L21.604256,18.422944 C21.614176,18.530144 21.698336,18.590304 21.792096,18.590304 L22.715936,18.590304 C22.809696,18.590304 22.877856,18.530144 22.868256,18.422944" id="Fill-17" fill="#E4002B" mask="url(#mask-4)"></path>
                    <path d="M16.160448,18.048896 C16.160448,18.386496 15.899008,18.659776 15.576128,18.659776 C15.253568,18.659776 14.992128,18.386496 14.992128,18.048896 C14.992128,17.711296 15.253568,17.438016 15.576128,17.438016 C15.899008,17.438016 16.160448,17.711296 16.160448,18.048896" id="Fill-18" fill="#E4002B" mask="url(#mask-4)"></path>
                    <path d="M31.750752,18.397952 L30.361952,16.486912 L31.697312,14.652352 C31.750752,14.574592 31.712672,14.499392 31.604832,14.499392 L30.592672,14.499392 C30.484832,14.499392 30.421472,14.514752 30.343072,14.621952 L29.687712,15.525632 L29.032032,14.621952 C28.953632,14.514752 28.890272,14.499392 28.782432,14.499392 L27.770272,14.499392 C27.662432,14.499392 27.624032,14.574592 27.677472,14.652352 L29.012832,16.486912 L27.624032,18.397952 C27.556512,18.482752 27.594912,18.590592 27.699232,18.590592 L28.720992,18.590592 C28.827872,18.589952 28.898272,18.538112 28.960992,18.451712 L29.687712,17.448192 L30.413792,18.451712 C30.476832,18.538112 30.546912,18.589952 30.653792,18.590592 L31.675872,18.590592 C31.780192,18.590592 31.818592,18.482752 31.750752,18.397952" id="Fill-19" fill="#E4002B" mask="url(#mask-4)"></path>
                    <path d="M25.109184,17.743264 C25.640704,17.743264 25.977024,17.254944 25.977024,16.774304 C25.796864,16.766304 25.593984,16.750624 25.382784,16.750624 C24.905664,16.750624 24.530304,16.900384 24.530304,17.294304 C24.530304,17.577824 24.780864,17.743264 25.109184,17.743264 Z M26.238464,18.594144 C26.132864,18.594144 26.047424,18.508704 26.047424,18.403424 L26.047424,17.948384 L26.031744,17.948384 C25.711104,18.460384 25.320064,18.688864 24.741824,18.688864 C23.936384,18.688864 23.217024,18.286944 23.217024,17.396704 C23.217024,16.144224 24.569344,15.994464 25.320064,15.994464 C25.546944,15.994464 25.796864,16.017824 25.977024,16.049504 C25.969344,15.490144 25.554944,15.340384 25.046784,15.340384 C24.630784,15.340384 24.231104,15.406624 23.863424,15.588704 C23.817664,15.611744 23.746944,15.560864 23.745664,15.509664 L23.728064,14.793504 C23.726464,14.729184 23.764864,14.669984 23.824704,14.647264 C24.295104,14.470304 24.789184,14.394784 25.351424,14.394784 C26.391424,14.394784 27.290304,14.844064 27.290304,16.096544 L27.290304,17.625184 L27.290304,18.412064 C27.290304,18.512544 27.209024,18.594144 27.108224,18.594144 L26.238464,18.594144 Z" id="Fill-20" fill="#E4002B" mask="url(#mask-4)"></path>
                </g>
            </g>
        </g>
    </g>
</svg>