<?xml version="1.0" encoding="UTF-8"?>
<svg width="132px" height="132px" viewBox="0 0 132 132" version="1.1" xmlns="http://www.w3.org/2000/svg" xmlns:xlink="http://www.w3.org/1999/xlink">
    <!-- Generator: Sketch 52.3 (67297) - http://www.bohemiancoding.com/sketch -->
    <title>instagram</title>
    <desc>Created with Sketch.</desc>
    <defs>
        <polygon id="path-1" points="0.0001 0.6152 131.3841 0.6152 131.3841 132 0.0001 132"></polygon>
    </defs>
    <g id="Symbols" stroke="none" stroke-width="1" fill="none" fill-rule="evenodd">
        <g id="logos/appIcons/instagramIco" transform="translate(-9.000000, -10.000000)">
            <g id="instagram" transform="translate(9.000000, 9.000000)">
                <g id="Group-3" transform="translate(0.000000, 0.385000)">
                    <mask id="mask-2" fill="white">
                        <use xlink:href="#path-1"></use>
                    </mask>
                    <g id="Clip-2"></g>
                    <path d="M117.3021,132.0002 L14.0821,132.0002 C6.3051,132.0002 0.0001,125.6952 0.0001,117.9172 L0.0001,14.6972 C0.0001,6.9202 6.3051,0.6152 14.0821,0.6152 L117.3021,0.6152 C125.0791,0.6152 131.3841,6.9202 131.3841,14.6972 L131.3841,117.9172 C131.3841,125.6952 125.0791,132.0002 117.3021,132.0002" id="Fill-1" fill="#AC35B1" mask="url(#mask-2)"></path>
                </g>
                <path d="M65.6918,15.8095 C51.8738,15.8095 50.1398,15.8675 44.7128,16.1155 C39.2968,16.3625 35.5978,17.2225 32.3618,18.4805 C29.0158,19.7805 26.1778,21.5205 23.3488,24.3495 C20.5198,27.1785 18.7808,30.0165 17.4798,33.3625 C16.2218,36.5985 15.3618,40.2975 15.1148,45.7135 C14.8678,51.1405 14.8088,52.8735 14.8088,66.6925 C14.8088,80.5115 14.8678,82.2445 15.1148,87.6715 C15.3618,93.0875 16.2218,96.7865 17.4798,100.0235 C18.7808,103.3695 20.5198,106.2065 23.3488,109.0365 C26.1778,111.8645 29.0158,113.6045 32.3618,114.9045 C35.5978,116.1625 39.2968,117.0225 44.7128,117.2695 C50.1398,117.5175 51.8738,117.5765 65.6918,117.5765 C79.5108,117.5765 81.2448,117.5175 86.6708,117.2695 C92.0878,117.0225 95.7868,116.1625 99.0228,114.9045 C102.3688,113.6045 105.2068,111.8645 108.0358,109.0365 C110.8648,106.2065 112.6038,103.3695 113.9048,100.0235 C115.1628,96.7865 116.0228,93.0875 116.2698,87.6715 C116.5168,82.2445 116.5758,80.5115 116.5758,66.6925 C116.5758,52.8735 116.5168,51.1405 116.2698,45.7135 C116.0228,40.2975 115.1628,36.5985 113.9048,33.3625 C112.6038,30.0165 110.8648,27.1785 108.0358,24.3495 C105.2068,21.5205 102.3688,19.7805 99.0228,18.4805 C95.7868,17.2225 92.0878,16.3625 86.6708,16.1155 C81.2448,15.8675 79.5108,15.8095 65.6918,15.8095 M65.6918,24.9775 C79.2788,24.9775 80.8878,25.0295 86.2538,25.2735 C91.2138,25.5005 93.9088,26.3295 95.7018,27.0265 C98.0768,27.9495 99.7718,29.0515 101.5518,30.8325 C103.3338,32.6135 104.4358,34.3085 105.3588,36.6835 C106.0558,38.4765 106.8838,41.1705 107.1108,46.1315 C107.3558,51.4975 107.4078,53.1065 107.4078,66.6925 C107.4078,80.2795 107.3558,81.8885 107.1108,87.2535 C106.8838,92.2145 106.0558,94.9095 105.3588,96.7025 C104.4358,99.0775 103.3338,100.7725 101.5518,102.5525 C99.7718,104.3335 98.0768,105.4365 95.7018,106.3595 C93.9088,107.0565 91.2138,107.8855 86.2538,108.1115 C80.8888,108.3555 79.2798,108.4085 65.6918,108.4085 C52.1048,108.4085 50.4958,108.3555 45.1308,108.1115 C40.1708,107.8855 37.4758,107.0565 35.6828,106.3595 C33.3078,105.4365 31.6128,104.3335 29.8328,102.5535 C28.0508,100.7725 26.9488,99.0775 26.0258,96.7025 C25.3288,94.9095 24.5008,92.2145 24.2738,87.2535 C24.0288,81.8885 23.9768,80.2795 23.9768,66.6925 C23.9768,53.1065 24.0288,51.4975 24.2738,46.1315 C24.5008,41.1705 25.3288,38.4765 26.0258,36.6835 C26.9488,34.3085 28.0508,32.6135 29.8328,30.8325 C31.6128,29.0515 33.3078,27.9495 35.6828,27.0265 C37.4758,26.3295 40.1708,25.5005 45.1308,25.2735 C50.4968,25.0295 52.1058,24.9775 65.6918,24.9775" id="Fill-4" fill="#FFFFFF"></path>
                <path d="M65.6918,83.6538 C56.3248,83.6538 48.7308,76.0598 48.7308,66.6928 C48.7308,57.3248 56.3248,49.7318 65.6918,49.7318 C75.0598,49.7318 82.6538,57.3248 82.6538,66.6928 C82.6538,76.0598 75.0598,83.6538 65.6918,83.6538 M65.6918,40.5638 C51.2608,40.5638 39.5628,52.2618 39.5628,66.6928 C39.5628,81.1238 51.2608,92.8218 65.6918,92.8218 C80.1238,92.8218 91.8218,81.1238 91.8218,66.6928 C91.8218,52.2618 80.1238,40.5638 65.6918,40.5638" id="Fill-6" fill="#FFFFFF"></path>
                <path d="M98.9603,39.5312 C98.9603,42.9032 96.2263,45.6372 92.8543,45.6372 C89.4813,45.6372 86.7483,42.9032 86.7483,39.5312 C86.7483,36.1582 89.4813,33.4252 92.8543,33.4252 C96.2263,33.4252 98.9603,36.1582 98.9603,39.5312" id="Fill-8" fill="#FFFFFF"></path>
            </g>
        </g>
    </g>
</svg>