<svg xmlns="http://www.w3.org/2000/svg" width="521" height="32" viewBox="75.4 275.4 521 32"><path fill="#FFF" d="M556 279.4h27.6v24.1H556zM508.6 295.1h14.9v12h-14.9zM470 289.2h7.2v6H470zM435 289.3h7v5.8h-7zM395.9 285.8h23v13.3h-23zM355.7 287.4h2.7v2.7h-2.7zM352.4 294.8h1.6v1.7h-1.6zM290.4 300.3h3.2v3.4h-3.2zM285.9 278.2h7.6v16.5h-7.6z"/><path fill="#FFF" d="M258.5 278.2h30v18.5h-30z"/><path fill="none" d="M327.5 295.1c-.1 0-.3 0-.4.1-.3.1-.4.4-.4.6s.1.3.3.4h.2c.4-.2.6-.5.5-.9 0-.1-.1-.2-.2-.2zM356.9 288.1h-.1s-.1.3-.1.5h.6c.2 0 .3-.1.3-.3 0-.1 0-.2-.2-.2h-.5zM330.5 295.8v-.6l-.4.6zM316.2 295.1c-.1 0-.2.3-.2.5h.3c.2 0 .3-.1.3-.3 0-.1-.1-.2-.1-.2h-.3zM291.5 302.7c0 .2.1.4.4.4h.1c.1 0 .3-.1.4-.2v-.6h-.4c-.3 0-.5.1-.5.4zM318 295.1h-.4-.1l-.1.4h.5c.1 0 .2-.1.2-.2s0-.2-.1-.2zM334.7 295.2h-.3-.1l-.1.4h.3c.2 0 .3-.1.3-.2s0-.2-.1-.2zM319.6 295.1h-.1c-.1 0-.2.1-.3.1-.2.1-.3.4-.3.6 0 .3.1.4.3.4.1 0 .3-.1.4-.2.2-.2.3-.4.2-.6 0-.2-.1-.3-.2-.3zM346.1 295c-.2 0-.3.1-.4.2-.1.2-.2.3-.2.5s.1.3.2.4h.1c.1 0 .2 0 .3-.1.3-.1.4-.3.4-.6s-.1-.4-.4-.4zM283.1 301c-.3 0-.6.3-.6 1s.3 1 .6 1 .6-.3.6-1-.3-1-.6-1zM336 295.8c.1 0 .1 0 0 0 .1-.2.1-.4.1-.5v-.1l-.4.6h.3zM397.8 292.4v.3c-.1 1.1.7 2.1 1.8 2.1h.4c.3 0 .6 0 .9-.1l.1-3.8c-.4-.2-.8-.2-1.2-.2-1-.1-1.9.7-2 1.7zM343.2 289c-.1-.1-.3-.2-.5-.2h-2.2c-.1 0-.1 0-.1.1 0 .2-.1.4-.2.6-.1.1-.2.4-.3.7h2.6c.4 0 .7-.3.8-.6.1-.2.1-.5-.1-.6zM337.8 295.1h-.5l-.1.4h.5c.1 0 .2-.1.2-.2s0-.2-.1-.2z"/><path fill="none" d="M357.9 288.2c-.1.2-.1.2-.3.3.1.1.1.2.1.3s0 .2-.1.2v.2l-.3.2.1-.4c.1-.2 0-.3-.2-.3h-.5s-.1 0-.1.1-.1.3-.1.4c-.1.1-.1.2-.3.1 0-.1.1-.2.1-.3l.4-1.1s0-.1.1-.1h.9c-.2-.2-.5-.3-.7-.3-.7 0-1.2.6-1.2 1.2 0 .7.5 1.2 1.2 1.2s1.2-.6 1.2-1.2c0-.2-.1-.5-.3-.7v.2zM95.1 303.2c-.5 0-.8.4-.8.7h1.6c0-.4-.4-.7-.8-.7zM104.3 303.4c-.5 0-1 .4-1 .9v.1c.1.5.4.9.9.9s1-.4 1-.9-.4-1-.9-1zM110.6 303.3c-.5 0-1 .4-1 .9-.1.2-.1.2 0 .1 0 .5.5.9 1 .9.5-.1.8-.4.9-.9 0-.5-.4-1-.9-1zM85.1 303.3c-.5 0-1 .4-1 .9 0 .1 0 .2.1.1 0 .4.4.8.8.8.5.1.9-.3 1-.8 0-.5-.4-1-.9-1zM279.2 301c-.2.1-.3.2-.5.2v1.5c.1.1.3.1.5.1.4 0 .6-.2.6-.9s-.3-.9-.6-.9zM113.4 305.6s-.1 0-.1-.1h-.1l.1.1v.1h-.1l-.1-.1v.1h-.1v-.1l-.1.1c.1.1.2.2.3.2h.1l.1-.1h.1c0-.1 0-.1-.1-.2zM331.8 290.2c.3 0 .6-.2.8-.5.1-.2.2-.4.1-.6-.1-.3-.4-.4-.6-.4h-2.2s-.1 0-.1.1l-.6 1.4h2.6zM149.7 303.3c-.5 0-.9.4-1 .9v.1c.1.5.4.9.9.9s1-.4 1-.9-.4-1-.9-1zM264.1 300.9c-.3 0-.5.2-.5.7h1c0-.5-.2-.7-.5-.7zM168.3 305.8c.1-.1.1-.2 0-.3h-.2l.1.1h-.1l.2.2-.2-.1-.1-.1v.1-.2l-.1-.1s-.1 0-.1.1l-.1.1c0 .1.1.2.3.2h.3zM228.8 292.7h2.5l-1.1-4.3s-1.3 4.3-1.4 4.3z"/><path fill="none" d="M168.1 305.5h-.1l.1.1zM153.4 303.2c-.4 0-.8.4-.8.8h1.6c0-.5-.4-.8-.8-.8zM166.1 303.3c-.1 0-.3-.1-.4-.1-.3 0-.5.1-.7.3-.1.1-.2.2-.2.3-.1.3-.1.5 0 .8 0 .1.1.2.2.3.1.1.2.2.3.2.3.1.5.1.8 0 .1 0 .2-.1.3-.2.1-.1.2-.2.2-.3.1-.3.1-.5 0-.8-.1-.2-.3-.4-.5-.5zM273.5 302.7c0 .3.2.4.4.4s.3-.1.4-.2l.1-.6h-.4c-.3 0-.5.1-.5.4zM451.3 292.1c-.3 1.2.1 2 1.4 2 .9 0 1.8-.6 1.9-1.6l.5-2.3c-2-.3-3.4.2-3.8 1.9zM446 290.1c-1.1 0-2.2.8-2.4 2-.4 1.2.2 1.9 1.4 1.9 1.1 0 2.1-.8 2.4-1.9.3-1.2-.3-2-1.4-2zM586.4 289.9c-.6 0-1.2.4-1.3 1h2.5c-.1-.6-.6-1-1.2-1zM566 289.4c-.4-.4-1.1-.6-1.7-.6h-.4c-1.5.1-2.7 1.4-2.6 2.9v.2c.1 1.5 1.5 2.7 3.1 2.6h.4c1.7-.1 2.9-1.5 2.8-3.2v-4.4H566v2.5zm-1.6 3.8c-.9 0-1.5-.7-1.5-1.5v-.2c.1-.8.7-1.4 1.5-1.3.8 0 1.5.7 1.5 1.5 0 .9-.7 1.5-1.5 1.5zM461.8 290.7c0-.5-.4-.7-1-.7-1.1 0-2 .7-2.3 1.6 1 .2 3.3.3 3.3-.9zM571.2 288.8h-.2c-1.6 0-2.8 1.3-2.8 2.8v.5c.2 1.5 1.6 2.7 3.2 2.5.5 0 1.1-.1 1.6-.3l.1-1.3c-.5.2-.9.3-1.4.3-.8 0-1.6-.5-1.7-1.2h4.2c.1-2-.9-3.3-3-3.3zm-1.3 2.2c.1-.6.7-1 1.3-1 .7 0 1.2.4 1.3 1h-2.6zM592.8 290c-.8 0-1.5.7-1.5 1.5v.1c0 .8.7 1.4 1.5 1.4h.1c.8 0 1.4-.7 1.4-1.5s-.7-1.5-1.5-1.5zM413.8 292.4v.3c-.1 1.1.8 2 1.9 2.1h.3c.3 0 .6 0 .9-.1l.1-3.8c-.4-.2-.8-.2-1.2-.2-1-.1-1.9.7-2 1.7zM474.1 290.2c-1.2 0-2.2.9-2.4 2-.3 1.3.2 2 1.4 2s2.2-.8 2.4-2c.3-1.2-.2-2-1.4-2z"/><path fill="none" stroke="#666" stroke-width="0" stroke-linecap="round" stroke-linejoin="round" d="M92.9 302.7h.1"/><path fill="#666" d="M113.4 305.4c0-.1-.1-.1-.1-.1h-.1-.1l-.1.1c-.1 0-.1.1-.1.1v.2s0-.1.1-.1v.1h.1v-.1l.1.1h.1v-.1l-.1-.1h.1c0 .1.1.1.1.1.1.1.1.1.1.2v-.1s0-.1-.1-.3c0 .1 0 0 0 0zM81.7 302.7h-.1c-.4 0-.9.2-1.1.5-.2-.3-.6-.6-1-.5-.4 0-.7.2-.9.5v-.4h-.7v3.1h.7v-1.7c0-.4.2-.8.6-.8h.1c.4 0 .7.3.7.8v1.7h.7v-1.7c0-.4.2-.8.6-.8h.1c.5 0 .7.3.7.8v1.7l.7-.1v-1.9c0-.6-.4-1.2-1.1-1.2zM86 303.1c-.2-.3-.6-.5-1-.5-.9 0-1.6.7-1.6 1.6 0 .9.7 1.6 1.6 1.6.4 0 .8-.2 1-.5v.4h.7v-3H86v.4zm-1 2c-.4 0-.8-.4-.8-.8-.1.1-.1 0-.1-.1 0-.5.5-.9 1-.9s.9.5.9 1c-.1.5-.5.9-1 .8zM101.1 303.3c.3 0 .6.1.8.3l.3-.5c-.3-.3-.7-.4-1.1-.4-.9-.1-1.6.6-1.7 1.5.1 0 .1 0 .1.1 0 .9.6 1.6 1.5 1.6h.1c.4 0 .8-.1 1.1-.4l-.3-.5c-.2.2-.5.3-.8.3-.5 0-1-.5-.9-1.1 0-.5.4-.9.9-.9zM105.8 302.7h-.7v.4c-.2-.3-.6-.5-1-.5-.9-.1-1.7.6-1.7 1.5-.1.9.6 1.7 1.5 1.7h.3c.4 0 .8-.2 1-.4v.4h.7v-1.5h-.1v-1.6zm-1.6 2.6c-.5 0-.8-.4-.9-.9v-.1c0-.5.5-.9 1-.9s.9.5.9 1-.5.9-1 .9zM108.2 302.6c-.3 0-.7.2-.8.5v-.4h-.7v3.1h.7V304c0-.5.2-.8.7-.8.1 0 .3 0 .4.1l.2-.6c-.2 0-.4-.1-.5-.1zM88.7 303.3c.4 0 .7.1 1 .3l.3-.6c-.4-.2-.8-.3-1.3-.3-.8 0-1.3.4-1.3 1s.4.8 1.1.9h.3c.4.1.5.2.5.3s-.2.4-.7.4c-.4 0-.7-.1-1-.3l-.3.5c.4.3.9.4 1.3.4.9 0 1.4-.4 1.4-1s-.4-.8-1.1-.9h-.3c-.3 0-.5-.1-.5-.3 0-.2.2-.4.6-.4zM112.1 301.4h-.7v1.6c-.2-.3-.6-.5-1-.5-.9-.1-1.7.6-1.7 1.5-.1.9.6 1.7 1.5 1.7h.3c.4 0 .8-.2 1-.4v.4h.7v-1.5h-.1v-2.8zm-1.5 3.8c-.5 0-1-.4-1-.9-.1.1-.1.1 0-.1 0-.5.5-.9 1-.9s.9.5.9 1c-.1.5-.4.8-.9.9zM113 305.9h.2c-.1 0-.2-.1-.3-.2 0 .1 0 .1.1.2zM113.3 305.9c.1 0 .2-.1.2-.1s-.1 0-.2.1zM113.2 305.9h.1-.1zM92.3 305.2c-.3 0-.5-.2-.5-.5v-1.4h1.1v-.6h-1v-.9h-.7v.9h-.6v.6h.6v1.4c0 .7.3 1.1 1.1 1.1.3 0 .6-.1.8-.2l-.2-.6c-.2.1-.4.2-.6.2zM95.4 302.5c-.2.2-.3.2-.3.1-.9-.1-1.7.6-1.7 1.5-.1.9.6 1.7 1.5 1.7h.3c.5 0 .9-.1 1.3-.4l-.3-.5c-.3.2-.6.3-.9.3-.5 0-.9-.3-.9-.8h2.3v-.3c.1-.8-.5-1.5-1.3-1.6zm-1.1 1.4c0-.3.3-.7.8-.7.4 0 .8.3.8.7h-1.6zM98.7 302.6c-.3 0-.7.2-.8.5v-.4h-.7v3.1h.8v-1.7c0-.5.2-.8.6-.8.1 0 .3 0 .4.1l.2-.6c-.1-.2-.2-.2-.5-.2z"/><path fill="#F2F2F2" d="M97.1 281.4c0-.1-.1-.1-.1-.2-.6-.7-1.3-1.4-2-2h-.2l.1.1c-2.8 2.2-4.5 5.5-4.5 9.1.1 3.5 1.7 6.8 4.4 9.1h.2c5-3.9 6-11.1 2.1-16.1z"/><path fill="#9F9F9F" d="M90.4 288.4c0-3.6 1.7-6.9 4.5-9.1l-.1-.1c-5.1-3.9-12.3-3-16.4 2.1-4 5-3.1 12.2 1.8 16.2.1 0 .1.1.2.1 4.3 3.3 10.2 3.3 14.5 0l-.1-.1c-2.7-2.3-4.3-5.6-4.4-9.1z"/><path fill="#D8D8D8" d="M95 279.2c.7.6 1.4 1.3 2 2 0 .1.1.1.1.2 3.9 5 2.9 12.2-2.1 16.1 2 1.6 4.6 2.5 7.2 2.5 6.4 0 11.7-5.2 11.7-11.6 0-2.6-.9-5.2-2.4-7.2-4.1-5.1-11.4-6-16.5-2z"/><path fill="none" stroke="#9F9F9F" stroke-width="0" stroke-linecap="round" stroke-linejoin="round" d="M112.8 295.3v.8M113.6 295.3v.8"/><path fill="#9F9F9F" d="M113 295.1h-.4v.2h.4zM113.4 295.8l-.1-.7h-.1v1h.1v-.8l.1.6h.1l.1-.6v-.2h-.1zM288.5 287.2v-.9c-.1-.5-.2-1.1-.3-1.6-1.5-4.9-6.6-7.7-11.5-6.2-3 .9-5.3 3.2-6.2 6.2.8 2.6 2.7 4.8 5.2 5.9-.9-.9-1.3-2.1-1.4-3.4 0-2.8 2.3-5 5-5s5 2.3 5 5c0 1.3-.5 2.5-1.3 3.4-1 1-2.3 1.6-3.7 1.6-3.9 0-7.5-2.3-9.2-5.8-.2-.5-.4-1-.6-1.6-.2-.8-.3-1.6-.3-2.5 0-1.2.2-2.3.6-3.4l.1-.1v-.1c0-.3-.2-.5-.5-.5h-10.2c-.4 0-.7.3-.7.6.4 9.5 7.9 17.2 17.5 17.8h1.3c1.3 0 2.7-.2 4-.5 4.2-.9 7.2-4.6 7.2-8.9z"/><path fill="#9F9F9F" d="M292.5 278.1h-3.2c-.3 0-.5.2-.5.5v.2c.4 1.1.6 2.3.6 3.5 0 .9-.1 1.7-.3 2.5.2.8.4 1.7.4 2.5 0 2.8-1.2 5.5-3.4 7.4.9-.5 1.8-1.1 2.6-1.8 4.1-3.4 5.8-9 4.4-14.2-.1-.3-.4-.5-.6-.6z"/><path fill="#666" d="M261.7 298.4v-.3h-.6l-.4.3-.3-.3h-.7v.3l.6.6h.8zM260.5 299.2c-1.2.1-2.1 1.1-2 2.3 0 .1 0 .2-.1.3.1 1.2 1.1 2 2.2 1.9.5.1 1.1-.1 1.5-.4v-.8h-.4c-.3.3-.6.4-1 .4-.6 0-1-.5-1-1.4 0-.9.4-1.4 1.1-1.4.4 0 .7.1.9.3h.5v-.9c-.5-.2-.9-.3-1.4-.3h-.3zM264.2 300.3h-.2c-.9 0-1.6.8-1.5 1.7v.4c.1.8.9 1.4 1.8 1.3.5 0 1-.1 1.4-.3v-.7h-.4c-.3.1-.6.2-.9.2-.5 0-.7-.1-.8-.6h2.2v-.3c0-1.2-.5-1.7-1.6-1.7zm-.6 1.3c0-.5.2-.7.5-.7s.5.2.5.7h-1zM267.6 301.5c-.5-.1-.6-.2-.6-.3 0-.1.1-.2.4-.2.2 0 .5.1.7.2h.4v-.7c-.3-.1-.7-.2-1.1-.2-.8 0-1.4.4-1.4 1.1s.4.9 1.1 1c.5.1.6.1.6.3 0 .1-.2.2-.5.2-.3.1-.6 0-.8-.2h-.4v.7c.4.2.8.3 1.3.2 1 0 1.5-.4 1.5-1.1s-.4-.9-1.2-1zM272.3 300.7v-.3h-1l-1.1 1.2v-1.7c0-.5 0-.6-.4-.6h-.7v4.5h1.2v-1l.3-.3.8 1.3h1.1v-.3l-1.1-1.8.9-1z"/><path fill="#666" d="M273.9 300.3c-.5 0-1 .1-1.4.3v.8h.4c.2-.1.5-.2.8-.2.5 0 .6.1.6.4v.2c-.2-.1-.4-.1-.6-.1-.8 0-1.3.3-1.3 1v.1c.1.5.5.9 1.1.9.4 0 .7-.1 1-.4.1.3.3.4.5.4h.4v-2.2c0-.9-.5-1.2-1.5-1.2zm.4 2.6c-.1.1-.2.2-.4.2s-.4-.1-.4-.4.2-.4.5-.4h.4l-.1.6zM275.1 299.5v-.3H274l-.2.7v.2h.7zM279.7 300.3c-.4 0-.7.1-1 .4 0-.3-.1-.4-.3-.4h-.8v4.4h1.2v-1.3c.2.2.5.2.7.2.8 0 1.5-.5 1.5-1.7s-.7-1.6-1.3-1.6zm-.5 2.5c-.2 0-.4 0-.5-.1v-1.5c.2 0 .3-.1.5-.2.3 0 .6.2.6.9s-.2.9-.6.9zM283.1 300.2c-1 0-1.8.8-1.8 1.8s.8 1.8 1.8 1.8 1.8-.8 1.8-1.8-.8-1.8-1.8-1.8zm0 2.8c-.3 0-.6-.3-.6-1s.3-1 .6-1 .6.3.6 1-.3 1-.6 1zM286.6 301.5c-.5-.1-.6-.2-.6-.3 0-.1.1-.2.4-.2.3 0 .6.1.8.2h.4v-.7c-.3-.1-.7-.2-1.1-.2-.8 0-1.4.4-1.4 1.1s.4.9 1.1 1c.5.1.6.1.6.3 0 .1-.2.2-.5.2-.3.1-.6 0-.8-.2h-.4v.7c.4.2.8.3 1.2.2 1 0 1.5-.4 1.5-1.1s-.4-.9-1.2-1zM285.5 299.4l.6.7h.8l.6-.7v-.2h-.6l-.4.3-.4-.3h-.6zM289.5 299.4h-1.1v.9h-.4v.7h.3v1.7c0 .8.4 1 1.1 1 .3 0 .5 0 .7-.1v-.7h-.2c-.3 0-.4-.1-.4-.4V301h.6v-.7h-.6v-.9zM291.9 300.3c-.5 0-1 .1-1.4.3v.8h.4c.2-.1.5-.2.8-.2.5 0 .6.1.6.4v.2c-.2-.1-.4-.1-.6-.1-.8 0-1.3.3-1.3 1v.1c.1.5.5.9 1.1.9.4 0 .7-.1 1-.4 0 .3.2.4.3.4h.6v-2.2c0-.9-.5-1.2-1.5-1.2zm.5 2.6c-.1.1-.3.2-.4.2h-.1c-.3 0-.4-.2-.4-.4 0-.3.2-.4.5-.4h.4v.6z"/><path fill="none" stroke="#666" stroke-width="0" stroke-linecap="round" stroke-linejoin="round" d="M168 305.5l.1.1"/><path fill="#666" d="M162.6 303v-.4h-.7v3.1h.7V304c0-.5.3-.8.7-.8.1 0 .3 0 .4.1l.2-.6c-.2-.1-.3-.1-.5-.1-.3 0-.7.2-.8.4zM166.9 303c-.1-.1-.3-.2-.5-.3-.3-.1-.5-.1-.7-.1s-.5 0-.6.1c-.2 0-.3.2-.5.3-.1.1-.2.3-.3.5-.2.4-.2.9 0 1.3 0 .2.1.4.3.5.1.1.3.2.5.3.4.2.9.2 1.3 0 .2 0 .3-.1.5-.3.2-.1.3-.3.4-.5.2-.4.2-.9 0-1.3-.1-.2-.2-.4-.4-.5zm-.3 1.6c0 .1-.1.2-.2.3-.1.1-.2.2-.3.2-.3.1-.5.1-.8 0-.1 0-.2-.1-.3-.2-.1-.1-.2-.2-.2-.3-.1-.3-.1-.5 0-.8 0-.1.1-.2.2-.3.2-.2.4-.3.7-.3.1 0 .3.1.4.1.2.1.4.3.5.5.1.3.1.5 0 .8zM151.2 302.7h-.7v.4c-.2-.3-.6-.5-1-.5-.9-.1-1.7.6-1.7 1.5-.1.9.6 1.7 1.5 1.7h.3c.4 0 .8-.2 1-.4v.4h.7v-1.6h-.1v-1.5zm-1.6 2.5c-.5 0-.8-.4-.9-.9v-.1c.1-.5.5-.9 1-.9s.9.5.9 1-.5.9-1 .9zM153.6 302.6h-.2c-.9 0-1.6.7-1.6 1.6 0 .9.7 1.6 1.6 1.6.5 0 .9-.1 1.3-.4l-.3-.5c-.3.2-.6.3-.9.3-.5 0-.9-.3-.9-.8h2.3c-.1 0-.1-.1 0-.2.1-.8-.5-1.5-1.3-1.6zm-1 1.4c0-.4.4-.8.8-.8s.8.3.8.8h-1.6zM146.3 302.7c-.5 0-1 .2-1.2.5-.2-.3-.6-.6-1-.5-.4 0-.7.2-.9.5v-.4h-.7v3.1h.7v-1.7c-.1-.4.2-.8.6-.8h.2c.4 0 .7.3.7.8v1.7h.7v-1.7c-.1-.4.2-.8.6-.8h.1c.5 0 .7.3.7.8v1.7l.6-.1v-1.9c0-.6-.4-1.2-1.1-1.2zM156.9 303.9h-.3c-.3 0-.5 0-.5-.3s.2-.4.6-.4c.3 0 .7.1 1 .3l.2-.6c-.4-.2-.9-.3-1.3-.3-.8 0-1.3.5-1.3 1s.4.8 1.1.9h.3c.4 0 .6.1.6.3 0 .3-.2.4-.7.4-.4 0-.7-.1-1-.3l-.3.5c.4.3.8.4 1.3.4.9 0 1.4-.5 1.4-1s-.4-.8-1.1-.9zM160.3 305.2c-.3 0-.4-.2-.4-.5v-1.4h1.1v-.6h-1.1v-.9h-.7v.9h-.6v.6h.6v1.4c0 .7.3 1.1 1.1 1.1.3 0 .5 0 .8-.2l-.2-.6c-.2.1-.4.2-.6.2zM168.2 305.3h-.2l-.1.1c-.1 0-.1.1-.1.1v.2s0-.1.1-.1c0-.1.1-.1.1-.1H168.3c.1.1.1.2 0 .3l-.2.1h.1l.1-.1c.1 0 .1-.1.1-.1v-.2l-.1-.1-.1-.1zM168 305.7v-.1z"/><path fill="#666" d="M167.8 305.7c0 .1 0 .1.1.2h.2c-.1 0-.2-.1-.3-.2zM168 305.6l.2.1-.2-.1h.2l-.1-.1-.1.1z"/><path fill="#F2F2F2" d="M157 281.4c0-.1-.1-.1-.1-.2-.6-.7-1.3-1.4-2-2-.7.6-1.4 1.4-2.1 2.2-3.9 5-2.9 12.2 2.1 16.1 5-3.9 6-11.1 2.1-16.1z"/><path fill="#D8D8D8" d="M152.8 281.4c.7-.8 1.4-1.6 2.1-2.2-5.1-4-12.4-3.1-16.5 2-4 5-3.1 12.2 1.8 16.2.1 0 .1.1.2.1 4.3 3.3 10.2 3.3 14.5 0-5-3.9-6-11.1-2.1-16.1z"/><path fill="none" stroke="#9F9F9F" stroke-width="0" stroke-linecap="round" stroke-linejoin="round" d="M172.8 295.3v.8"/><path fill="#9F9F9F" d="M173 295.1h-.4v.2h.4v.8h.1v-.7l.1.6h.1l.1-.4-.1-.5zM173.4 295.8v.3h.2v-1h-.1zM173.4 295.6v.2-.4zM154.9 279.2c.7.6 1.4 1.3 2 2 0 .1.1.1.1.2 3.9 5 2.9 12.2-2.1 16.1 2 1.6 4.5 2.5 7.1 2.5 6.5.1 11.8-5.1 11.9-11.6 0-2.7-.9-5.2-2.5-7.3-4-5-11.4-5.9-16.5-1.9zM345.9 289.9c.3-.4.4-.9.1-1.4-.2-.3-.5-.6-.8-.7-.4-.2-1-.3-1.5-.3h-6.2s-.1 0-.1.1c-.2.8-.4 1.5-.6 2.3l-.9 3c-.1.2-.1.4-.2.6l3.1-.1c.1 0 .1 0 .1-.1l.6-2c0-.1 0-.1.1-.1h3.1c.7 0 1.4-.2 2.1-.5.4-.2.8-.4 1.1-.8zm-2.6-.3c-.1.3-.4.6-.8.6h-2.6c.1-.3.2-.6.3-.7.1-.2.2-.4.2-.6 0-.1 0-.1.1-.1h2.2c.2 0 .4.1.5.2.2.1.2.4.1.6zM328.1 293.4s.1 0 .1-.1c.2-.6.4-1.3.6-1.9.1-.1.1-.1.2-.1h3.1c.8 0 1.5-.2 2.2-.5.4-.2.8-.5 1.1-.9.3-.5.3-1.1 0-1.5-.2-.3-.5-.5-.8-.6-.5-.2-1-.3-1.5-.3h-6.2s-.1 0-.1.1l-1.4 4.7-.3 1.1h3zm1.7-4.6c0-.1.1-.1.1-.1h2.2c.2 0 .5.1.6.4.1.2 0 .4-.1.6-.2.3-.5.5-.8.5h-2.6l.6-1.4zM351.3 287.5h-3.1c-.1 0-.1.1-.1.1l-.5 1.9-1 3.5c0 .2-.1.3-.1.5h8.1c.1 0 .1 0 .1-.1 0-.3.1-.6.2-.9l.1-.5h-5c.4-1.5.8-3 1.3-4.5zM323.4 293.4l.4-1.4.1-.2h-7.1s-.1 0-.1.1l-.3 1.2c-.1.1-.1.2-.2.4h7.1s.1 0 .1-.1zM324.1 291.2l.3-.9c0-.2.1-.3.1-.4h-7.1s-.1 0-.1.1c-.1.2-.1.4-.2.6-.1.2-.1.5-.2.7h7.1s.1 0 .1-.1zM324.6 289.5c.1-.4.2-.7.3-1l-7.2.1-.3 1 7.2-.1c-.1.1 0 .1 0 0zM325 288c0-.1.1-.3.1-.4H317.9c0 .1-.1.3-.1.4h7.2zM337.9 294.7h-.8c-.1 0-.1 0-.1.1-.1.4-.2.7-.3 1.1 0 .1-.1.3-.1.4h.3c.1-.1.2-.3.2-.5l.1-.1h.4c.1 0 .2 0 .1.1s-.1.2-.1.3v.2h.4v-.2l.1-.2c0-.1 0-.2-.1-.3.2-.1.2-.2.2-.4v-.2c0-.2-.1-.3-.3-.3zm-.2.8h-.5l.1-.4h.5c.1 0 .1.1.1.2s-.1.2-.2.2zM347.6 294.8c-.4.1-.6.4-.7.8v-.2-.1c0-.3-.2-.5-.5-.5h-.3c-.5.1-.9.6-.9 1.1 0 .3.2.6.5.6.3.1.5 0 .7-.1.2-.1.4-.4.4-.6v.2c.1.2.2.4.4.4.3.1.5.1.7-.1l.1-.1v.2c.2.1.2 0 .1-.1l.2-.6v-.1h-.7l-.1.2h.4c-.1.3-.3.4-.5.4-.2-.1-.3-.2-.3-.4 0-.1 0-.3.1-.4.1-.2.3-.4.5-.4s.3.1.3.2c.1.1.1.1.2.1h.1c.1 0 .1 0 .1-.1 0-.2-.1-.3-.2-.4-.2-.1-.4-.1-.6 0zm-1.5 1.2c-.1.1-.2.1-.3.1h-.1c-.1-.1-.2-.2-.2-.4s.1-.3.2-.5c.1-.1.2-.2.4-.2.3 0 .4.1.4.4 0 .3-.1.5-.4.6zM318.1 294.8h-.8c-.1 0-.1-.1-.1.1s-.1.3-.1.5c-.1.3-.2.6-.3 1l.3.2s.1.1.1-.1.1-.3.1-.5c0-.1.1-.1.1-.1h.3c.2 0 .2.1.2.2v.4h.4v-.2-.2c0-.1 0-.3-.1-.4l.1-.1c.1-.1.2-.2.2-.4 0-.3-.1-.4-.4-.4zm-.2.7h-.5l.1-.4h.5c.1 0 .1.1.1.2s-.1.2-.2.2zM329.7 294.8v.1zM319.8 294.8h-.4c-.4.1-.7.4-.8.8v.5c.1.2.4.4.7.3.5-.1.9-.5.9-1.1 0-.2-.2-.5-.4-.5zm-.2 1.2c-.1.1-.3.2-.4.2-.2 0-.3-.1-.3-.4 0-.2.1-.5.3-.6.1 0 .2-.1.3-.1h.1c.1 0 .2.1.2.3.1.2 0 .4-.2.6zM327.5 294.8h-.4c-.4.1-.6.5-.7.8 0-.2.1-.3.1-.5.1-.1.1-.2.1-.3h-.3c-.1 0-.1.1-.1.1 0 .1-.1.2-.1.3-.2.4-.3.8-.4 1.2v.1h.3s.1 0 .1-.1c.1-.3.2-.5.2-.7v.3c0 .2.1.3.3.4.2.1.4.1.6 0 .5-.2.8-.6.8-1.1 0-.3-.1-.5-.5-.5zm-.3 1.4h-.2c-.2-.1-.3-.2-.3-.4s.1-.5.4-.6c.1-.1.3-.1.4-.1s.2.1.2.2c.1.4-.1.7-.5.9z"/><path fill="none" stroke="#9F9F9F" stroke-width="0" stroke-linecap="round" stroke-linejoin="round" d="M345.2 295.9s0 0 0 0"/><path fill="#9F9F9F" d="M322.1 294.9H322.9c.1 0 .1-.1.1-.2h-1.2s-.1 0-.1.1h-1.1c-.1 0-.1.1-.1.1-.1.3-.1.5-.2.8l-.2.7.2-.1s.1.1.1-.1.1-.4.1-.5c0-.1 0-.1.1-.1h.6c.1 0 .1-.1.1-.2h-.7c.1-.1.1-.2.1-.3 0-.1 0-.1.1-.1H321.7l-.3.8c0 .2 0 .3-.1.5h1.3c0-.1.1-.2.1-.3h-.9c0-.1.1-.2.1-.3 0-.1 0-.1.1-.1h.7c.1 0 .1-.1.1-.2h-.8v-.4c0-.1 0-.1.1-.1zM340.3 295.6h.7c.1 0 .1-.1.1-.2h-.8c.1-.1.1-.2.1-.3 0-.1 0-.1.1-.1H341.3c.1 0 .1-.1.1-.2h-1.1c-.1 0-.1.1-.1.1l-.3 1c0 .2-.1.3-.1.5h1.2c0-.1.1-.2.1-.3h-.9c0-.1.1-.2 0-.4 0-.1 0-.1.1-.1zM324.3 295.9c0-.2-.1-.4-.3-.4l-.4-.1c-.2 0-.2-.1-.1-.2s.2-.1.3-.1c.2 0 .3 0 .3.2h.1c.1 0 .1-.1.1-.1.1-.2 0-.4-.2-.4h-.4c-.3.1-.5.2-.6.5v.1c-.1.2 0 .4.2.4l.4.1c.2.1.2.2.1.3-.1.1-.2.1-.3.1-.2 0-.3-.1-.3-.3h-.3v.1c0 .2.2.4.4.4h.3c.3 0 .6-.2.7-.6zM325.4 295.6l-.4-.1c-.1 0-.2-.1-.1-.2s.2-.2.3-.2c.2 0 .3 0 .3.2h.1c.1 0 .1-.1.1-.1.1-.2 0-.3-.2-.4-.3-.1-.7-.1-.9.2s-.2.6.2.7l.4.1c0 .1.1.1.1.1.1.1.1.2 0 .2-.1.1-.3.1-.5.1s-.2-.1-.2-.2h-.2c-.1 0-.1.1-.1.1 0 .2 0 .3.2.4.1.1.3.1.4.1.3 0 .6-.2.7-.4.2-.4.1-.5-.2-.6zM330.5 294.7c-.1 0-.2 0-.2.1l-.8 1.2-.2.2.3-.9.1-.4h-.2c-.1 0 0-.1-.1.1s-.1.4-.2.6l-.1.5v-.1c-.1-.3-.2-.6-.2-.8s0-.2-.3-.2c-.1 0-.1.1-.1.1l-.3.9c-.1.2-.1.4-.2.6h.3c.1 0 0 .1.1-.1s.2-.4.2-.6 0-.4.1-.5v.1c.1.3.1.6.2.8.1.2.2.2.3.2.1 0 .1 0 .1-.1v-.1c.2 0 .4 0 .5-.2v-.1h.6c.1 0 .1 0 .1.1v.3h.4c0-.5-.1-1.1-.1-1.4s0-.3-.3-.3zm0 1.1h-.4l.4-.6v.6zM336 294.8c-.3.4-.6.8-.8 1.1-.1.2-.2.3-.3.5.2 0 .4 0 .5-.2v-.1h.7v.2c0 .1 0 .1.1.1h.3c0-.6-.1-1.1-.2-1.6h-.3zm.1.5v.4c0 .1 0 .1-.1.1h-.3l.4-.5c0-.1 0-.1 0 0zM335.2 295.3c.1-.3-.1-.5-.4-.5h-.6s-.1 0-.1.1c-.1.4-.2.7-.3 1.1l-.1.4h.2c.1 0 .1 0 .1-.1s.1-.3.1-.4c0-.1.1-.1.1-.1h.3c.3.1.6-.2.7-.5zm-.7.3h-.3l.1-.4h.4c.1 0 .1.1.1.2s-.1.2-.3.2zM317 295.1c0-.2-.1-.3-.3-.3h-.8s-.1 0-.1.1c0 .3-.1.5-.2.8l-.2.7h.4c.1 0 .1 0 .1-.1l.1-.4c0-.1 0-.1.1-.1h.2c.3.1.7-.2.7-.7zm-.7.5h-.3c0-.2.1-.5.1-.5h.4s.1.1.1.2c0 .2-.1.3-.3.3zM353.6 294.8c-.2 0-.4 0-.6.1-.4.2-.6.7-.6 1.2 0 .2.1.3.3.4.5 0 .9-.2 1.1-.6h-.2s-.1 0-.1.1c-.1.1-.2.2-.3.2-.2.1-.4 0-.4-.2 0-.3.1-.6.3-.8.2-.2.5-.1.6.2h.2c.1 0 .1 0 .1-.1 0-.3-.2-.5-.4-.5zM339.4 296c-.1.1-.2.2-.3.2-.2.1-.4 0-.4-.2 0-.3.1-.6.3-.8.1-.1.3-.1.4-.1.2.1.2.2.2.3h.2c.1 0 .1 0 .1-.1 0-.2-.1-.3-.3-.4-.2-.1-.4-.1-.6 0-.4.2-.7.7-.7 1.2 0 .2.1.3.3.4.5.1.9-.2 1.1-.6h-.1c-.1 0-.2 0-.2.1zM357 287.4c-.7 0-1.3.6-1.3 1.4 0 .7.6 1.3 1.4 1.3.7 0 1.3-.6 1.3-1.4 0-.7-.7-1.3-1.4-1.3zm0 2.5c-.7 0-1.2-.5-1.2-1.2 0-.6.5-1.2 1.2-1.2.3 0 .5.1.7.3h-.9c-.1 0-.1.1-.1.1l-.4 1.1c0 .1-.1.2-.1.3.2.1.2 0 .3-.1 0-.1.1-.3.1-.4 0-.1.1-.1.1-.1h.5c.2 0 .3.1.2.3l-.1.4.3-.2v-.2c.1 0 .1-.1.1-.2s0-.2-.1-.3c.2-.1.2-.1.3-.3v-.2c.2.2.3.4.3.7 0 .6-.5 1.2-1.2 1.2zm.6-1.6c0 .2-.1.3-.3.3h-.6c0-.2.1-.5.1-.5h.6c.2 0 .2.1.2.2zM352 295c.1 0 .1-.1.1-.2h-1.2c-.1 0-.1.1-.1.1l-.1.1c0-.1-.1-.2-.2-.2-.3 0-.5 0-.7.1-.2.1-.4.3-.4.5-.1.2 0 .3.1.3.1.1.1.1.2.1s.3.1.4.1c.1 0 .2.1.1.2-.2.1-.3.1-.5.1h-.1c-.1 0-.1-.1-.1-.2h-.3c-.1 0-.1.1-.1.1 0 .2.1.4.3.4h.4c.3 0 .6-.2.7-.5v-.1c0-.2-.1-.4-.3-.4l-.4-.1c-.2 0-.2-.1-.1-.2s.3-.1.4-.1c.1 0 .1.1.1.2h.4l.1-.1v-.1h.5c-.1.4-.2.8-.4 1.2h.2c.1 0 .2 0 .2-.1.1-.3.2-.7.3-1.1 0-.1 0-.1.1-.1h.4z"/><path fill="none" stroke="#9F9F9F" stroke-width="0" stroke-linecap="round" stroke-linejoin="round" d="M342.3 296.3s0 0 0 0"/><path fill="#9F9F9F" d="M341.9 294.7h-.2c-.1 0-.1 0-.1.1-.1.4-.2.7-.3 1.1 0 .1-.1.2-.1.4h1.1c.1 0 .1-.1.1-.2h-.8c.1-.5.3-.9.3-1.4zM331.9 294.8l-.3-.2c-.1 0-.1 0-.1.1-.1.3-.2.7-.3.9-.1.3-.1.5-.2.7H332.2c.1 0 .1-.1.1-.2h-.8c.2-.4.3-.9.4-1.3zM344.6 294.8h-.2c-.1-.1-.2 0-.2.1-.1.4-.3.8-.3 1s-.1.3-.1.5h1.1c.1-.1.1-.2.1-.3h-.8c.1-.4.3-.9.4-1.3zM349.3 294.8h-.2c-.1 0-.1 0-.1.1l-.3.9-.2.6h.2c.1 0 .1 0 .1-.1.2-.4.3-.8.4-1.2.1-.1.1-.2.1-.3zM352.2 294.8c-.1 0-.1 0-.1.1l-.3 1.2c0 .1-.1.2-.1.3h.2c.1 0 .1 0 .1-.1l.3-.9c.1-.2.1-.4.2-.6h-.3z"/><path fill="#666" d="M407.1 288.9c-1.1 0-2.2.2-3.2.6v9.6h2l.1-8.2c.4-.1.8-.2 1.2-.2 1-.1 1.9.6 2 1.6v.3c.1 1.1-.8 2.1-1.9 2.1h-.3v1.7h.1c2.5 0 4-1.4 4-3.9 0-2.3-1.6-3.6-4-3.6zM417 289.1c-.5-.1-.9-.2-1.4-.2h-.4c-2 .1-3.4 1.8-3.3 3.8 0 2.4 1.6 3.7 4.1 3.7 1 0 2-.1 3-.3v-10.2h-2v3.2zm-.1 5.6c-.3.1-.6.1-.9.1h-.3c-1.1-.1-2-1-1.9-2.1v-.3c.1-1 1-1.8 2-1.7.4 0 .8 0 1.2.2l-.1 3.8zM401.1 289.1c-.5-.1-.9-.2-1.4-.2h-.5c-2 .1-3.4 1.8-3.3 3.8 0 2.4 1.6 3.7 4.1 3.7.9 0 1.9-.1 2.9-.3h.1v-10.2h-1.9v3.2zm-.2 5.6c-.3.1-.6.1-.9.1h-.4c-1.1 0-1.9-1-1.8-2.1v-.3c.1-1 1-1.8 2-1.7.4 0 .8 0 1.2.2l-.1 3.8z"/><path fill="#9F9F9F" d="M384.8 290.3l-.5-.3-.1-.1v-.6c0-.1 0-.2.1-.2l5.5-3.2-7.8-4.2c-.1 0-.2-.1-.3-.1-.1 0-.2 0-.3.1l-7.8 4.2 8.7 5c.1.1.1.1.1.2v7.3c0 .1-.1.2-.1.2l-.4.2h-.2l-.5-.2c-.1-.1-.1-.1-.1-.2v-6.5s0-.1-.1-.1l-7.7-4.4v8.6c0 .2.1.4.3.5l7.9 4.6c.1 0 .2.1.3.1.1 0 .2 0 .3-.1l7.9-4.6c.2-.1.3-.3.3-.5v-8.6l-5.2 2.9h-.3zM230.1 284.7c-.8-.1-1.5.4-1.8 1.1l-5.2 12.3h3.6l1-2.7h4.1l.5 2.7h3.2l-2.7-13.4h-2.7zm-1.3 8c.1 0 1.4-4.3 1.4-4.3l1.1 4.3h-2.5zM220.5 290.1c-1.2-.6-2-1-2-1.6 0-.6.6-1.1 2-1.1.9 0 1.8.1 2.6.5l.3.1.5-2.8c-1-.4-2.1-.6-3.1-.5-3.4 0-5.9 1.8-5.9 4.3 0 1.9 1.7 2.9 3.1 3.5 1.4.6 1.8 1.1 1.8 1.6 0 .9-1.1 1.3-2.1 1.3-1.1 0-2.2-.2-3.3-.7l-.5-.2-.5 2.9c1.2.5 2.6.7 3.9.7 3.6 0 6-1.7 6-4.4 0-1.5-.9-2.6-2.8-3.6zM204.9 284.7l-3.4 9.1-.4-1.8v-.1.2c-.8-1.9-2.5-3.8-4.7-5.3l3 11.3h3.7l5.5-13.4h-3.7zM210 284.7l-2.2 13.4h3.5l2.2-13.4z"/><path fill="#D8D8D8" d="M201.1 292.1v-.2l-1.1-5.4c-.3-1-1.2-1.8-2.3-1.7h-5.4l-.1.2c1.5.4 2.9 1 4.2 1.8 2.2 1.5 3.9 3.4 4.7 5.3z"/><path fill="#666" d="M455.8 287l-.4 2.3H454c-2 0-3.7.8-4.2 2.8-.4 1.8.6 3.1 2.8 3.1 1.8.2 3.3-1.1 3.6-2.8l1-5.5-1.4.1zm-1.2 5.5c-.1 1-1 1.6-1.9 1.6-1.3 0-1.7-.8-1.4-2 .4-1.7 1.8-2.2 3.8-1.9l-.5 2.3zM441.7 290.2l.2-.8c-3.6-.5-5.8.3-5.9 1.7-.1 1.9 3.4.9 3.4 2 0 1.2-2.2 1.1-4.3.8l-.2.8c1.2.4 6.1 1 6.2-1.8.1-1.9-3.4-1-3.4-2 .1-.7 1.9-.9 4-.7zM446.1 289.2c-1.9-.1-3.7 1.1-4.2 3-.4 1.8.7 3 2.8 3 1.9.1 3.7-1.1 4.2-3s-.6-3-2.8-3zm1.3 2.9c-.3 1.1-1.3 1.9-2.4 1.9-1.2 0-1.8-.7-1.4-1.9.2-1.2 1.3-2 2.4-2 1.1 0 1.7.8 1.4 2zM464.9 289.4h-1.3c.6 1 1.3 1.9 2 2.8.3-.3.7-.5 1-.8-.7-.7-1.3-1.4-1.7-2zM466.4 293.2c.6.7 1.2 1.3 1.8 1.9h1.8s-1.2-1.3-2.5-2.7c-.4.3-.7.6-1.1.8zM471.2 285.6l-.5 1.8 1.4-1.3 1 1.4v-1.9l1.8-.1-1.3-1 1.2-1.5-1.7.6-.3-1.8-.8 1.7-1.5-.7.7 1.6-1.7 1zM474.3 289.2c-1.9-.1-3.7 1.1-4.2 3-.4 1.8.7 3 2.8 3 1.9.1 3.7-1.1 4.2-3 .4-1.8-.7-3-2.8-3zm1.2 3c-.2 1.2-1.2 2-2.4 2s-1.7-.7-1.4-2c.2-1.1 1.2-2 2.4-2s1.7.8 1.4 2z"/><path fill="#9F9F9F" d="M470.6 287.4c-1.2 1.5-2.6 2.8-4 4-.3.3-.7.5-1 .8-1.1.9-2.3 1.7-3.5 2.4 1.4 0 2.9-.5 4.3-1.4.4-.2.7-.5 1-.8 1.4-1.2 2.5-2.9 3.2-5z"/><path fill="#666" d="M458.2 292.7v-.2c2.4.5 4.9-.1 4.9-1.8 0-.9-.7-1.5-2.2-1.5-2.5 0-4.2 1.7-4.2 3.7 0 1.3 1.1 2.4 3.1 2.4.8 0 1.6-.2 2.3-.7-1.7.2-3.9 0-3.9-1.9zm2.6-2.7c.6 0 1 .2 1 .7 0 1.2-2.3 1.1-3.3.9.3-.9 1.2-1.6 2.3-1.6z"/><path fill="#9F9F9F" d="M571.2 290c-.6 0-1.2.4-1.3 1h2.6c-.1-.6-.6-1-1.3-1zM564.4 290.2c-.8-.1-1.4.5-1.5 1.3v.2c0 .8.6 1.5 1.5 1.5.8 0 1.5-.6 1.5-1.5 0-.8-.7-1.5-1.5-1.5zM556.2 293.5v0zM580 290.6c0-.2.1-.4.1-.5-.1-.2-.1-.3-.2-.4 0 .3.1.6.1.9z"/><path fill="#9F9F9F" d="M568.1 279.4c-4.9 0-9.4 2.9-11.3 7.5h4.3l-.2 1.4h-3.4v1.6h3.1l-.2 1.4h-2.8v.9c0 .5.2.8.7.8h2.9l-.2 1.4h-3.7c-.4-.1-.7-.2-.9-.5-.1-.1-.1-.2-.2-.3 0 .1.1.2.1.3.1.3.1.7.2 1 2 6.5 8.8 10.1 15.3 8.1 4.1-1.2 7.2-4.5 8.3-8.6h-1.6v-2.9c0-.8-.3-1.3-1.1-1.3s-1.1.5-1.1 1.3v2.9h-1.6V291c0-1.6 1.2-2.3 2.8-2.3 1 0 1.9.3 2.4 1-.8-5.9-5.8-10.3-11.8-10.3zm-.5 11.9c.1 1.7-1.1 3.1-2.8 3.2h-.4c-1.6.1-3-1.1-3.1-2.6v-.2c-.1-1.5 1.1-2.8 2.6-2.9h.4c.6 0 1.3.2 1.7.6v-2.5h1.6v4.4zm4.1 2c.5 0 .9-.1 1.4-.3l-.1 1.3c-.5.2-1.1.3-1.6.3-1.6.2-3-1-3.2-2.5v-.5c0-1.5 1.2-2.8 2.8-2.8h.2c2.1 0 3.1 1.3 3 3.3H570c.1.7.9 1.2 1.7 1.2zM583.8 288.9c-.5-.1-.9-.2-1.2-.2-1.2 0-2.1.4-2.5 1.4.1.3.2.6.2.9v3.4h1.6v-2.9c0-.8.2-1.3 1-1.3.2 0 .4 0 .6.1l.3-1.4z"/><path fill="#9F9F9F" d="M586.3 288.7c-1.5-.1-2.9 1-3 2.5v.3c0 1.6 1.2 2.9 2.8 2.9h.4c.5 0 1.1-.1 1.6-.3l.1-1.3c-.4.2-.9.3-1.3.3-.8.1-1.6-.4-1.8-1.2h4.2c0-2-1-3.2-3-3.2zm-1.2 2.2c.1-.6.7-1 1.3-1s1.1.4 1.2 1h-2.5zM594.3 286.9v2.5c-.5-.4-1.1-.7-1.7-.6-1.5-.1-2.9 1-3 2.5v.3c0 1.6 1.3 2.9 2.9 2.9h.2c1.6.2 3.1-1 3.3-2.7V286.9h-1.7zm-1.4 6.1h-.1c-.8 0-1.5-.6-1.5-1.4v-.1c0-.8.7-1.5 1.5-1.5s1.5.7 1.5 1.5-.6 1.5-1.4 1.5zM500.5 307.1h31.4v-31.4h-31.4v31.4zm16.3-21l2.5-.6v1.5c.8-.6 1.8-.9 2.8-.9 2.8 0 5.1 2.4 5.1 5.3s-2.3 5.3-5.1 5.3c-1 0-2-.3-2.8-.9v3.5l-2.5.6v-13.8zm-10.9-3.2l2.6-.6v9.3c0 1.2.2 2.6 2.3 2.6 1.8 0 2.2-1.2 2.2-2.9v-8.5l2.6-.6v10c0 2.5-1.9 4.4-4.9 4.4-2.3 0-4.7-1.3-4.7-4.8v-8.9z"/><path fill="#9F9F9F" d="M522 294.4c1.7 0 2.9-1.4 2.9-3s-1.2-3-2.9-3-2.9 1.4-2.9 3 1.2 3 2.9 3z"/><path fill="#FFF" d="M510.7 296.7c3 0 4.9-2 4.9-4.4v-10l-2.6.6v8.5c0 1.6-.4 2.9-2.2 2.9-2 0-2.3-1.5-2.3-2.6v-9.3l-2.6.6v9.1c0 3.3 2.4 4.6 4.8 4.6zM519.3 295.8c.8.6 1.8.9 2.8.9 2.8 0 5.1-2.4 5.1-5.3s-2.3-5.3-5.1-5.3c-1 0-2 .3-2.8.9v-1.5l-2.5.6V300l2.5-.6v-3.6zm2.7-7.4c1.7 0 2.9 1.4 2.9 3s-1.2 3-2.9 3-2.9-1.4-2.9-3c0-1.7 1.2-3 2.9-3z"/></svg>