<?xml version="1.0" encoding="UTF-8"?>
<svg width="132px" height="132px" viewBox="0 0 132 132" version="1.1" xmlns="http://www.w3.org/2000/svg" xmlns:xlink="http://www.w3.org/1999/xlink">
    <!-- Generator: Sketch 52.3 (67297) - http://www.bohemiancoding.com/sketch -->
    <title>youtube</title>
    <desc>Created with Sketch.</desc>
    <defs>
        <polygon id="path-1" points="0.0002 0.6152 131.3842 0.6152 131.3842 132 0.0002 132"></polygon>
    </defs>
    <g id="Symbols" stroke="none" stroke-width="1" fill="none" fill-rule="evenodd">
        <g id="logos/appIcons/youtubeIco" transform="translate(-9.000000, -10.000000)">
            <g id="youtube" transform="translate(9.000000, 9.000000)">
                <g id="Group-3" transform="translate(0.000000, 0.385000)">
                    <mask id="mask-2" fill="white">
                        <use xlink:href="#path-1"></use>
                    </mask>
                    <g id="Clip-2"></g>
                    <path d="M117.3022,132.0002 L14.0822,132.0002 C6.3052,132.0002 0.0002,125.6952 0.0002,117.9172 L0.0002,14.6972 C0.0002,6.9202 6.3052,0.6152 14.0822,0.6152 L117.3022,0.6152 C125.0792,0.6152 131.3842,6.9202 131.3842,14.6972 L131.3842,117.9172 C131.3842,125.6952 125.0792,132.0002 117.3022,132.0002" id="Fill-1" fill="#FF0000" mask="url(#mask-2)"></path>
                </g>
                <path d="M112.0375,43.2587 C110.9245,39.0697 107.6465,35.7707 103.4845,34.6507 C95.9405,32.6167 65.6915,32.6167 65.6915,32.6167 C65.6915,32.6167 35.4435,32.6167 27.8995,34.6507 C23.7375,35.7707 20.4605,39.0697 19.3475,43.2587 C17.3265,50.8517 17.3265,66.6927 17.3265,66.6927 C17.3265,66.6927 17.3265,82.5337 19.3475,90.1267 C20.4605,94.3157 23.7375,97.6147 27.8995,98.7347 C35.4435,100.7687 65.6915,100.7687 65.6915,100.7687 C65.6915,100.7687 95.9405,100.7687 103.4845,98.7347 C107.6465,97.6147 110.9245,94.3157 112.0375,90.1267 C114.0585,82.5337 114.0585,66.6927 114.0585,66.6927 C114.0585,66.6927 114.0585,50.8517 112.0375,43.2587" id="Fill-4" fill="#FFFFFF"></path>
                <polygon id="Fill-6" fill="#FF0000" points="55.7992 81.0757 81.0812 66.6937 55.7992 52.3097"></polygon>
            </g>
        </g>
    </g>
</svg>