<?xml version="1.0" encoding="UTF-8"?>
<svg width="536px" height="323px" viewBox="0 0 536 323" version="1.1" xmlns="http://www.w3.org/2000/svg" xmlns:xlink="http://www.w3.org/1999/xlink">
    <title>404</title>
    <defs>
        <ellipse id="path-1" cx="14.3851369" cy="14.3812417" rx="14.3851369" ry="14.3812417"></ellipse>
        <path d="M47.5413629,48.8349835 C32.7821234,49.2089849 15.9475049,38.3362319 2.16805797,25.1927565 C-1.91144216,21.3102665 0.333173636,19.2799735 4.22562245,15.2015781 C8.10916406,11.1231826 14.5668881,10.9718011 18.6463882,14.8631959 C29.2815916,25.0057558 39.7742797,29.5026766 49.8483292,28.2381959 C68.5801824,25.8873304 81.8430114,5.01449419 81.9766195,4.80077914 C84.9516262,0.0367145584 91.2401133,-1.43257639 96.0143754,1.53271988 C100.788638,4.49801616 102.267234,10.7491813 99.3189487,15.5310554 C98.5796506,16.7242978 80.9611981,44.7922072 52.5383052,48.4520774 C50.8726578,48.6657925 49.2070104,48.7993644 47.5413629,48.8349835 Z" id="path-3"></path>
    </defs>
    <g id="Page-1" stroke="none" stroke-width="1" fill="none" fill-rule="evenodd">
        <g id="404" transform="translate(-452.000000, -277.000000)">
            <g transform="translate(452.000000, 278.000000)" id="404">
                <g id="Group" transform="translate(0.000000, 23.375028)">
                    <path d="M87.370779,186.715768 L4.0260569,186.715768 L0,149.965685 L76.2991226,44.7377387 L136.226801,44.7377387 L136.226801,146.439387 L157.123106,146.439387 L157.123106,186.715768 L136.226801,186.715768 L136.226801,217.428401 L87.3796863,217.428401 L87.3796863,186.715768 L87.370779,186.715768 Z M87.370779,146.439387 L87.370779,94.5867734 L50.1030311,146.439387 L87.370779,146.439387 Z" id="Shape" fill="#E8E8E8" fill-rule="nonzero"></path>
                    <path d="M466.247673,186.715768 L382.902951,186.715768 L378.876894,149.965685 L455.176017,44.7377387 L515.103696,44.7377387 L515.103696,146.439387 L536,146.439387 L536,186.715768 L515.103696,186.715768 L515.103696,217.428401 L466.256581,217.428401 L466.256581,186.715768 L466.247673,186.715768 Z M466.247673,146.439387 L466.247673,94.5867734 L428.979926,146.439387 L466.247673,146.439387 Z" id="Shape" fill="#E8E8E8" fill-rule="nonzero"></path>
                    <g transform="translate(137.195217, 0.000000)">
                        <circle id="Oval" fill="#E8E8E8" fill-rule="nonzero" transform="translate(129.879483, 129.879483) rotate(-45.000000) translate(-129.879483, -129.879483) " cx="129.879483" cy="129.879483" r="91.838663"></circle>
                        <path d="M231.928288,129.87647 C231.928288,186.234909 186.225416,231.925405 129.851712,231.925405" id="Path" stroke="#E8E8E8" stroke-width="1.17"></path>
                        <path d="M225.13209,26.0109578 C224.936131,29.9735909 221.560301,33.0279351 217.596594,32.8320297 C213.632888,32.6361242 210.577716,29.2612074 210.773675,25.2985743 C210.969633,21.3359411 214.345464,18.2815969 218.309171,18.4775024 C222.272877,18.6734078 225.328049,22.0483246 225.13209,26.0109578 Z" id="Path" stroke="#E8E8E8" stroke-width="1.17"></path>
                    </g>
                </g>
                <g id="Group" transform="translate(126.838607, 0.000000)">
                    <g transform="translate(14.376230, 0.000000)">
                        <g transform="translate(38.158468, 6.061891)">
                            <g transform="translate(56.008508, 0.000000)">
                                <path d="M13.0579633,33.0835821 C13.3429939,34.0274902 26.8374103,52.3535555 26.5612869,51.8816014 L36.100904,40.6704662 L20.1480989,28.3017079 L13.0579633,33.0924869 L13.0579633,33.0835821 Z" id="Path" fill="#EF9E7B" fill-rule="nonzero"></path>
                                <polygon id="Path" fill="#D67F61" fill-rule="nonzero" points="22.4728796 27.607134 20.6201808 43.8405728 12.6927679 32.6828664"></polygon>
                                <g transform="translate(0.000000, 9.699594)">
                                    <ellipse id="Oval" fill="#EF9E7B" fill-rule="nonzero" cx="14.3851369" cy="14.3812417" rx="14.3851369" ry="14.3812417"></ellipse>
                                    <g id="Clipped">
                                        <mask id="mask-2" fill="white">
                                            <use xlink:href="#path-1"></use>
                                        </mask>
                                        <g id="Oval"></g>
                                        <path d="M1.603297,5.11135153 C1.603297,5.11135153 3.5450678,11.7721372 15.168971,14.9778628 L17.7876894,16.2423435 C17.7876894,16.2423435 23.7109811,26.6876664 33.8206594,22.4044607 C33.8206594,22.4044607 37.4726137,9.93774967 22.4996012,0.828145806 C11.614996,-5.79702064 1.59438979,5.11135153 1.59438979,5.11135153 L1.603297,5.11135153 Z" id="Path" fill="#060E38" fill-rule="nonzero" mask="url(#mask-2)"></path>
                                    </g>
                                </g>
                                <path d="M1.31826642,30.1806194 L0.766019676,33.6356793 C0.703669237,34.0542046 1.07777187,34.4014915 1.48750332,34.3035388 L3.82119117,33.7514416 L1.31826642,30.1806194 L1.31826642,30.1806194 Z" id="Path" fill="#EF9E7B" fill-rule="nonzero"></path>
                                <g transform="translate(13.819125, 19.267391)" id="Path">
                                    <path d="M9.17927959,4.79563554 C9.06348591,7.32459692 6.92575659,9.29255631 4.38720301,9.17679399 C1.85755664,9.06103167 -0.110935782,6.92388121 0.00485788969,4.38601503 C0.120651562,1.85705364 2.25838089,-0.110905743 4.79693447,0.00485657425 C7.32658084,0.120618891 9.29507326,2.25776936 9.17927959,4.79563554 Z" fill="#EF9E7B" fill-rule="nonzero"></path>
                                    <path d="M2.80172043,6.16697375 C2.80172043,6.16697375 2.6057619,3.28182062 5.6609334,2.64067548" stroke="#060E38" stroke-width="0.84" stroke-linecap="round" stroke-linejoin="round"></path>
                                </g>
                                <path d="M41.1869184,9.6550701 C41.302712,15.1048038 36.9827174,19.6195342 31.5315076,19.7442013 C26.0802978,19.8599636 21.5643446,15.5411387 21.4396437,10.091405 C21.3149428,4.6416713 25.6438447,0.126940942 31.0950545,0.00227383098 C36.5462643,-0.113488486 41.0622175,4.20533641 41.1869184,9.6550701 Z" id="Path" fill="#060E38" fill-rule="nonzero"></path>
                                <g transform="translate(1.291545, 23.632229)" id="Path">
                                    <path d="M2.60090401,3.5296652 C2.76123371,3.97490488 2.52964637,4.45576373 2.08428609,4.61605002 C1.63892582,4.7763363 1.15793672,4.54481167 0.997607019,4.09957199 C0.83727732,3.65433231 1.06886466,3.17347345 1.51422494,3.01318717 C1.95958522,2.85290088 2.44057432,3.08442552 2.60090401,3.5296652 Z" fill="#060E38" fill-rule="nonzero"></path>
                                    <path d="M0,0.742464799 C0,0.742464799 1.23810157,-0.361729609 3.03735709,0.439701816" stroke="#060E38" stroke-width="0.84" stroke-linecap="round" stroke-linejoin="round"></path>
                                    <path d="M4.89005584,10.8850247 C4.89005584,10.8850247 4.89005584,9.7986399 6.36865195,9.67397279" stroke="#060E38" stroke-width="0.84" stroke-linecap="round" stroke-linejoin="round"></path>
                                </g>
                            </g>
                            <g transform="translate(23.903638, 93.048462)" id="Path">
                                <g transform="translate(56.320355, 23.357274)">
                                    <g transform="translate(70.530461, 132.832806)">
                                        <polygon fill="#EF9E7B" fill-rule="nonzero" points="0 12.8674268 11.6684392 21.1666944 18.6249668 8.65545939 6.53788886 0"></polygon>
                                        <g transform="translate(7.971949, 6.705310)">
                                            <path d="M0,15.5388648 L11.0538421,0 L27.5499867,11.2378495 L6.52007445,40.7928595 C5.54028184,42.1731025 3.35801648,41.3538615 3.52725339,39.6708555 L6.1281574,20.0446904 L0,15.5388648 Z" fill="#060E38" fill-rule="nonzero"></path>
                                            <line x1="3.35801648" y1="39.1721871" x2="24.6818665" y2="9.1986518" stroke="#FFDABC" stroke-width="1.13"></line>
                                            <line x1="4.55158203" y1="29.0474368" x2="7.50877426" y2="28.0233855" stroke="#FFDABC" stroke-width="1.13"></line>
                                            <line x1="5.05929274" y1="25.2094707" x2="8.01648498" y2="24.1765146" stroke="#FFDABC" stroke-width="1.13"></line>
                                        </g>
                                    </g>
                                    <path d="M34.3048558,0 L3.66406878,5.30725699 C3.66406878,5.30725699 -23.0397334,87.8457889 67.7335982,152.049351 C67.7335982,152.049351 77.5849675,144.604943 85.5658236,130.143559 C85.5658236,130.143559 16.0272701,88.317743 34.3048558,0.00890479361" fill="#012442" fill-rule="nonzero"></path>
                                </g>
                                <g>
                                    <g transform="translate(0.000000, 187.962383)">
                                        <polygon fill="#EF9E7B" fill-rule="nonzero" points="21.1490073 0.552097204 21.1490073 14.8621005 35.8815253 14.8621005 35.9349685 0"></polygon>
                                        <g transform="translate(0.000000, 13.535286)">
                                            <path d="M18.4679385,0 L37.5382655,0 L37.9390897,19.9467377 L1.66004162,19.9467377 C-0.0412346343,19.9467377 -0.638017405,17.6938249 0.840578713,16.8567743 L18.3432376,7.59578895 L18.4590313,0 L18.4679385,0 Z" fill="#060E38" fill-rule="nonzero"></path>
                                            <line x1="1.15233091" y1="16.4293442" x2="37.9390897" y2="16.4293442" stroke="#FFDABC" stroke-width="1.13"></line>
                                            <line x1="10.0951653" y1="11.5406125" x2="12.6515332" y2="13.3571904" stroke="#FFDABC" stroke-width="1.13"></line>
                                            <line x1="13.5155322" y1="9.72403462" x2="16.0719002" y2="11.5406125" stroke="#FFDABC" stroke-width="1.13"></line>
                                        </g>
                                    </g>
                                    <g transform="translate(14.780355, 0.000000)">
                                        <path d="M43.7254719,3.73110852 L44.9902951,10.053512 C44.9902951,10.053512 2.16445094,71.5500166 0,192.299018 C0,192.299018 14.9106621,195.584887 27.7459452,192.299018 C27.7459452,192.299018 26.0357618,90.3124168 68.5320394,43.7759654 C68.5320394,43.7759654 88.4752725,27.1061917 77.1096783,0 L43.7165647,3.73110852 L43.7254719,3.73110852 Z" fill="#005482" fill-rule="nonzero"></path>
                                        <path d="M0.231587344,183.643559 C0.231587344,183.643559 13.5389524,185.362184 27.8439245,183.643559" stroke="#060E38" stroke-width="0.84" stroke-linecap="round" stroke-linejoin="round"></path>
                                        <line x1="45.2931401" y1="10.0000832" x2="79.2919436" y2="6.93683422" stroke="#060E38" stroke-width="0.84" stroke-linecap="round" stroke-linejoin="round"></line>
                                    </g>
                                </g>
                            </g>
                            <g transform="translate(0.000000, 37.329158)">
                                <g transform="translate(0.000000, 7.873700)">
                                    <g transform="translate(15.584003, 8.387369)">
                                        <path d="M47.5413629,48.8349835 C32.7821234,49.2089849 15.9475049,38.3362319 2.16805797,25.1927565 C-1.91144216,21.3102665 0.333173636,19.2799735 4.22562245,15.2015781 C8.10916406,11.1231826 14.5668881,10.9718011 18.6463882,14.8631959 C29.2815916,25.0057558 39.7742797,29.5026766 49.8483292,28.2381959 C68.5801824,25.8873304 81.8430114,5.01449419 81.9766195,4.80077914 C84.9516262,0.0367145584 91.2401133,-1.43257639 96.0143754,1.53271988 C100.788638,4.49801616 102.267234,10.7491813 99.3189487,15.5310554 C98.5796506,16.7242978 80.9611981,44.7922072 52.5383052,48.4520774 C50.8726578,48.6657925 49.2070104,48.7993644 47.5413629,48.8349835 Z" id="Path" fill="#EF9E7B" fill-rule="nonzero"></path>
                                        <g id="Clipped">
                                            <mask id="mask-4" fill="white">
                                                <use xlink:href="#path-3"></use>
                                            </mask>
                                            <g id="Path"></g>
                                            <polygon id="Path" fill="#D67F61" fill-rule="nonzero" mask="url(#mask-4)" points="63.013179 19.2799735 62.4609322 52.5571873 87.7663031 44.0798237 72.766569 14.3734323"></polygon>
                                        </g>
                                    </g>
                                    <path d="M34.5777719,27.1419595 L34.1858548,23.882805 L35.6110077,24.5328549 L31.1217761,15.5479182 C30.7476735,14.8088203 30.2399628,14.1231512 29.5630152,13.6511971 C28.0042542,12.5470027 26.7483382,13.0367664 25.6349375,12.9120993 C23.7644244,12.707289 24.3433927,13.268291 24.3166711,15.1472025 L24.3166711,15.1472025 C22.3659931,15.1828217 18.331029,16.0554914 16.1131348,7.42674642 C15.6410529,5.58345414 13.7260037,4.45254535 11.873305,4.90668983 C9.07644244,5.60126373 13.9219622,4.31006865 13.7883542,5.57454935 C13.7883542,5.62797811 13.7883542,5.68140687 13.7883542,5.73483563 C13.1203137,5.11150008 12.1672428,4.83545148 11.223079,5.06697611 C10.056235,5.3608343 9.24567934,6.3403616 9.12988567,7.47127039 C9.11207126,7.62265188 9.11207126,7.77403337 9.12988567,7.92541486 C8.6934326,7.80965254 8.2213507,7.78293816 7.75817602,7.90760527 C6.59133209,8.20146346 5.78077639,9.18099076 5.66498272,10.3118995 C5.6293539,10.6235673 5.65607551,10.9530447 5.73624036,11.282522 C5.76296198,11.3982844 5.7985908,11.5051419 5.82531242,11.6209042 C5.77186918,11.629809 5.72733316,11.629809 5.67388992,11.6387138 C4.507046,11.932572 4.45360277,12.44905 4.32890189,13.5799588 C4.29327307,13.8916266 4.31999468,14.2211039 4.40015953,14.5505813 C5.00584951,16.9993995 5.61153948,17.9789268 6.52898165,19.8044095 L6.52898165,19.8044095 L6.57351768,19.8845527 C7.00997075,20.7483177 7.47314544,21.5319395 7.97194895,22.2532278 C10.7955331,26.7501485 17.8767615,35.5658942 25.9288753,37.5516632 C36.6442436,40.1963869 34.5866791,27.1419595 34.5866791,27.1419595 L34.5777719,27.1419595 Z" id="Path" fill="#EF9E7B" fill-rule="nonzero"></path>
                                    <g fill-rule="nonzero" id="Path">
                                        <path d="M0,0.935151877 L0.0534432332,2.54691952 C0.0712576442,3.05449276 0.249401755,3.53535161 0.570061154,3.92716253 L20.7181601,28.0947724 C21.2882212,28.7804415 22.3838075,29.6709209 23.2834353,29.6442065 L32.1193831,29.4215866 C33.0902685,29.3948722 34.1413188,28.4776785 34.5866791,27.293341 L34.5866791,27.293341 L8.06102101,1.80782165 L0,0.935151877 Z" fill="#03081D"></path>
                                        <path d="M0.222680138,1.54958264 L22.2412922,27.3823889 C22.6866525,27.9077717 23.3457857,28.2016299 24.0316405,28.1929218 L33.6425153,28.0769628 C34.3818133,28.0769628 34.7826376,27.1953882 34.2927413,26.6343862 L12.3186652,1.07762857 C11.7218825,0.383054673 10.8489763,-0.00875624574 9.93153417,0 L0.881813348,0.107006071 C0.142515288,0.107006071 -0.249401755,0.979675845 0.222680138,1.54958264 L0.222680138,1.54958264 Z" fill="#060E38"></path>
                                        <path d="M4.12403616,2.4311572 L24.0850838,25.8507644 C24.4057432,26.2247657 24.8689178,26.4384808 25.3588141,26.429576 L30.8278383,26.3672424 C31.4869716,26.3672424 31.8343526,25.5836206 31.4068067,25.0849521 L11.8911194,2.38663323 C11.3566871,1.77220248 10.5817602,1.41601073 9.77120447,1.42475244 L4.55158203,1.48724908 C4.07059293,1.48724908 3.81228397,2.05715587 4.12403616,2.4311572 L4.12403616,2.4311572 Z" fill="#F7F4ED"></path>
                                    </g>
                                    <path d="M27.737038,12.9388137 L22.8737038,12.1997158 C20.8339537,11.888048 19.2217495,13.9094362 19.978862,15.8328716 L19.978862,15.8328716 C20.2282638,16.4473023 20.6914384,16.9548756 21.2882212,17.2487338 L30.0261898,21.5230347 L28.734645,15.8952051 L27.7281308,12.9477185 L27.737038,12.9388137 Z" id="Path" fill="#EF9E7B" fill-rule="nonzero"></path>
                                </g>
                                <g transform="translate(74.225175, 0.000000)" fill-rule="nonzero" id="Path">
                                    <path d="M4.76392373,15.3627796 C4.76392373,15.3627796 1.51279372,11.7919574 7.42717819,5.24693405 C14.2500976,-2.31323572 18.0267528,0.0910585552 21.2333468,1.5603495 L4.76392373,15.3627796 Z" fill="#C95100"></path>
                                    <path d="M41.568497,55.7103994 C41.568497,55.7103994 32.4207969,42.6648768 33.6054552,32.5045073 C34.7901136,22.3441378 37.2485023,4.57907453 23.1840248,0.028725 C23.1840248,0.028725 16.9757025,0.0465345872 11.5601216,5.40722034 C6.90165306,9.44109184 -4.23235385,20.8036085 1.69984503,32.8696038 C2.43023589,34.3656092 3.17844115,35.5321371 3.91773921,36.4226165 C4.45217154,42.8874966 5.77934517,50.4832856 8.18429066,59.441508 L41.5774042,55.7103994 L41.568497,55.7103994 Z" fill="#FF6700"></path>
                                    <polygon fill="#C95100" points="25.5622486 31.0263116 33.8192282 56.5830692 46.1735222 55.211731 22.6050564 18.105456"></polygon>
                                </g>
                                <g transform="translate(86.526468, 0.031745)" id="Path">
                                    <path d="M41.808549,103.452872 C41.8619923,103.898112 41.9510643,104.325542 42.0579508,104.752972 L36.9452148,114.076291 C36.2682672,115.314058 36.4642257,116.845682 37.4262039,117.869733 C38.7355631,119.267786 40.9712717,119.241072 42.2450021,117.8074 L43.2871452,116.631967 C44.8280917,117.914257 46.6986049,121.030935 42.5122183,129.348012 C41.808549,130.746065 42.369703,132.455785 43.7681343,133.159264 C44.8637205,133.711361 46.1463581,133.488741 46.9836355,132.696215 C47.0192643,132.660595 47.0548931,132.616072 47.0905219,132.571548 C47.1885012,133.488741 47.7407479,134.343601 48.6314685,134.797746 C49.7270548,135.349843 51.0096924,135.127223 51.8469697,134.334697 C51.9538561,134.227839 52.0607426,134.112077 52.1498147,133.98741 C52.4081236,134.370316 52.7555046,134.699793 53.2008649,134.922413 C54.2964512,135.47451 55.5790888,135.25189 56.4163661,134.459364 C56.6568607,134.236744 56.8528192,133.9696 57.0042417,133.666837 C57.0576849,133.55998 57.1022209,133.453122 57.1556642,133.346265 C57.2002002,133.372979 57.235829,133.408598 57.280365,133.426408 C58.3759513,133.978505 59.6585889,133.755885 60.4958662,132.963358 C60.7363608,132.740739 60.9323193,132.473595 61.0837418,132.170832 C62.2416785,129.873395 63.0700486,127.70953 63.5777594,125.688142 L63.5777594,125.688142 L63.5955738,125.599094 C63.8360683,124.646281 63.996398,123.729087 64.0854701,122.838608 C64.7446033,118.475259 65.555159,109.944467 63.1769351,103.203538 C63.2571,102.411012 63.2571,101.591771 63.1502135,100.763625 C58.3759513,62.9894903 42.0490436,34.2804357 30.496398,18.0826161 L13.2075121,31.0034716 C23.2103039,45.1442839 37.5865336,70.4428025 41.764013,103.461777 L41.808549,103.452872 Z" fill="#EF9E7B" fill-rule="nonzero"></path>
                                    <path d="M18.4716706,3.21161078 C14.2941912,-1.02707098 7.48017893,-1.07159494 3.22253468,3.08694367 C-1.02620236,7.26329187 -1.07964559,14.0843638 3.0978338,18.3319503 C3.21362748,18.4477126 7.51580775,22.8912047 13.2520481,30.9945668 L30.540934,18.0737113 C24.0208596,8.92848828 19.0150101,3.77261278 18.4627633,3.21161078 L18.4716706,3.21161078 Z" fill="#FF6700" fill-rule="nonzero"></path>
                                    <line x1="13.2609553" y1="30.9945668" x2="3.10674101" y2="18.3319503" stroke="#060E38" stroke-width="0.84" stroke-linecap="round" stroke-linejoin="round"></line>
                                </g>
                            </g>
                        </g>
                        <g>
                            <g id="Path" stroke="#F2B77C" stroke-width="1.13">
                                <line x1="0" y1="9.92884487" x2="5.13945759" y2="12.1194241"></line>
                                <line x1="12.9510768" y1="2.06591212" x2="12.9510768" y2="6.58064248"></line>
                                <line x1="2.76123371" y1="0" x2="7.52658867" y2="7.28412117"></line>
                            </g>
                            <g transform="translate(10.082957, 11.398136)">
                                <g fill="#FF6700" fill-rule="nonzero">
                                    <rect id="Rectangle" x="0" y="0" width="57.6563414" height="20.5611684" rx="2.31"></rect>
                                    <polygon id="Path" points="23.3368785 18.6733522 28.734645 24.7909454 34.3105557 18.6733522"></polygon>
                                </g>
                                <g transform="translate(6.047993, 7.025882)" id="Path" stroke="#FFFFFF" stroke-width="1.13">
                                    <line x1="0" y1="0.44523968" x2="43.3780909" y2="0.44523968"></line>
                                    <line x1="0" y1="5.07573236" x2="23.9514757" y2="5.07573236"></line>
                                </g>
                            </g>
                        </g>
                    </g>
                    <line x1="0" y1="320.55476" x2="280.630417" y2="320.55476" id="Path" stroke="#E8E8E8" stroke-width="1.13"></line>
                </g>
            </g>
        </g>
    </g>
</svg>