<svg id="Vrstva_1" fill="#ea580c" data-name="Vrstva 1" xmlns="http://www.w3.org/2000/svg" viewBox="0 0 218.4 226.27"><title>image</title><path d="M103.1,170c3.7,8.32,9.25,13.91,18.19,15.4a47.52,47.52,0,0,0,7.46.4c24.91,0,49.82.17,74.73-.06,9.11-.09,13,7.41,11.41,14.58-1.13,5.12-5,8.2-10.46,8.23-12.66.06-25.32,0-38,0-13.41,0-26.83-.24-40.23,0-17.5.37-30.14-7.62-39.08-22-6.84-11.07-10.2-23.42-12.6-36.1C68.74,119.85,62.82,89.29,57,58.7a3.14,3.14,0,0,0-2.34-2.78c-5-1.65-9.93-3.39-14.85-5.18a11.08,11.08,0,0,1-7.26-11.38C32.86,34,36,29.84,40.84,28.77a7.6,7.6,0,0,1,3.64.11c7.66,2.28,15.27,4.71,22.92,7a11.47,11.47,0,0,1,8.14,8c1.11,3.49,2.38,6.93,3.39,10.45.45,1.59,1.24,2,2.82,2q50.35-.12,100.72-.12,25.25,0,50.49,0c1.91,0,3.83.09,5.74.25,9.77.8,14.15,6.84,11.45,16.94-3.66,13.66-7.91,27.17-11.89,40.74-3.81,13-7.52,26.07-11.48,39a41.21,41.21,0,0,1-4.32,9.48c-3.06,4.94-7.65,7.33-13.62,7.32q-51.36-.09-102.72,0Zm53.24-55c-14,.29-25.58,6.25-35.46,15.9a6.24,6.24,0,0,0,.07,8.81,6.35,6.35,0,0,0,8.62.54c1.7-1.33,3.22-2.9,4.94-4.2,10-7.58,20.9-10.45,33.08-6.05,5.89,2.12,10.81,5.78,15.38,10a6.4,6.4,0,0,0,9-9.08C182.11,121.31,170.54,115.31,156.34,115ZM138.9,98.87a9.35,9.35,0,1,0-9.33,9.45A9.48,9.48,0,0,0,138.9,98.87Zm53.68.17a9.31,9.31,0,1,0-9.45,9.27A9.36,9.36,0,0,0,192.58,99Z" transform="translate(-32.53 -28.6)"/><path d="M129.32,220.24a17.31,17.31,0,0,1-.7,34.62,17.31,17.31,0,1,1,.7-34.62Z" transform="translate(-32.53 -28.6)"/><path d="M197.8,220.24a17.31,17.31,0,0,1,.25,34.62,17.31,17.31,0,1,1-.25-34.62Z" transform="translate(-32.53 -28.6)"/></svg>
