<svg xmlns="http://www.w3.org/2000/svg" viewBox="0 0 270.5 35.99"><defs><style>.cls-1{fill:#ff6700;}.cls-2{fill:#ff6e1d;}.cls-3{fill:#aaa;}</style></defs><g id="Layer_2" data-name="Layer 2"><g id="Layer_1-2" data-name="Layer 1"><path d="M57.62,32.41h5.71c2.64,0,3.4-1.14,3.4-3.74,0-2.26-.38-3.71-2.13-5.24l-3.19-2.85c-2.34-2.09-3.79-3.83-3.79-8.39,0-4.25,1.83-6.34,6.56-6.34h6.09V9.09H65c-2.26,0-3.41.46-3.41,3.23a6.32,6.32,0,0,0,2.05,5.24l3.06,2.72c2.43,2.17,4,3.54,4,8.39,0,4.68-1.4,7-6.21,7h-6.9Z"/><path d="M78.44,35.65V9.09H72.22V5.85H88.48V9.09H82.27V35.65Z"/><path d="M108,20.75C108,32.16,107,36,98.78,36s-9.23-3.83-9.23-15.24,1.1-15.24,9.23-15.24S108,9.34,108,20.75Zm-9.24,12c5,0,5.24-3.2,5.24-12s-.25-12-5.24-12-5.23,3.24-5.23,12S93.8,32.76,98.78,32.76Z"/><path d="M112.7,10c0-3.07,1.54-4.13,4.18-4.13h4.59c5.28,0,6.56,3.53,6.56,9.07,0,5.74-1.28,8.85-4.81,9.45v.21l5.49,11.07h-4.34l-4.73-10a8.36,8.36,0,0,1-.85-2.81v-.38c0-.89.34-1.28,1.28-1.28h.68c3.15,0,3.28-2.59,3.28-6.21s-.26-5.83-3.83-5.83h-1.75c-1.49,0-1.92.42-1.92,1.91V35.65H112.7Z"/><path d="M136.71,35.65c-2.64,0-4.17-1-4.17-4.09V10c0-3.07,1.53-4.13,4.17-4.13h7.79V9.09h-6.21c-1.49,0-1.92.42-1.92,1.91v7.83h7.71v3.24h-7.71V30.5c0,1.49.43,1.91,1.92,1.91h6.38v3.24Z"/><path d="M148.93,35.65V10c0-3.07,1.53-4.13,4.17-4.13H161V9.09h-6.31c-1.49,0-1.91.42-1.91,1.91v8.09h6.09v3.23h-6.09V35.65Z"/><path d="M164.17,10c0-3.07,1.53-4.13,4.17-4.13h4.6c5.27,0,6.55,3.53,6.55,9.07,0,5.74-1.28,8.85-4.81,9.45v.21l5.49,11.07h-4.34l-4.72-10a8.18,8.18,0,0,1-.86-2.81v-.38c0-.89.34-1.28,1.28-1.28h.68c3.15,0,3.28-2.59,3.28-6.21s-.26-5.83-3.83-5.83h-1.75c-1.49,0-1.91.42-1.91,1.91V35.65h-3.83Z"/><path d="M201.63,20.75c0,11.41-1,15.24-9.24,15.24s-9.24-3.83-9.24-15.24,1.11-15.24,9.24-15.24S201.63,9.34,201.63,20.75Zm-9.24,12c5,0,5.24-3.2,5.24-12s-.26-12-5.24-12-5.24,3.24-5.24,12S187.41,32.76,192.39,32.76Z"/><path d="M223.51,32.24c0,3.15-2.09,3.75-3.79,3.75-2.05,0-3.88-.34-4.43-3.4l-4-22.36c-.09-.51-.26-.89-.69-.89s-.59.34-.59,1V35.65h-3.66V9c0-2.93,2.21-3.53,3.87-3.53,2.17,0,3.88.34,4.39,3.23l4.08,22.48c.09.47.22.94.64.94s.56-.68.56-.94V5.85h3.66Z"/><path d="M232.49,35.65V9.09h-6.22V5.85h16.26V9.09h-6.21V35.65Z"/><path class="cls-1" d="M264.63,35.65l-3.24-10.73-3.24,10.73h-5.87l5.49-15.11L252.62,5.85h5.87l2.9,10.3,2.89-10.3h5.88L265,20.54l5.49,15.11Z"/><path class="cls-2" d="M19.49,34.53a3.71,3.71,0,0,0,5.2.67L48.56,16.81a.07.07,0,0,0,0-.08.07.07,0,0,0-.1,0L20.93,28.88A3.71,3.71,0,0,0,19.49,34.53Z"/><path class="cls-3" d="M44.18,16.19A3.22,3.22,0,0,1,40,14.78a19.21,19.21,0,0,0-9.77-9A20.77,20.77,0,0,0,9.65,8.28,22,22,0,0,0,.9,27.67a22.69,22.69,0,0,0,1.27,5.92A23.29,23.29,0,0,1,.25,27.24a23.65,23.65,0,0,1,7.69-21c13-11.24,31.89-6.32,39,7.9C47.18,14.56,44.18,16.19,44.18,16.19Z"/></g></g></svg>