<?xml version="1.0" encoding="utf-8"?>
<!-- Generator: Adobe Illustrator 19.0.0, SVG Export Plug-In . SVG Version: 6.00 Build 0)  -->
<svg version="1.1" id="Layer_1" xmlns="http://www.w3.org/2000/svg" xmlns:xlink="http://www.w3.org/1999/xlink" x="0px" y="0px"
	 viewBox="680.7 197.5 38.6 28" style="enable-background:new 680.7 197.5 38.6 28;" xml:space="preserve">
<path id="XMLID_68_" class="st0" d="M1223.6,27"/>
<path id="XMLID_45_" class="st0" d="M1223.6,27"/>
<path id="XMLID_14_" class="st1" d="M709.9,206l-2.8-8.5h-14.2L690,206h-9.3l0.5,1.4l6.2,18.1h25.2l6.7-19.5L709.9,206L709.9,206z
	 M694.8,223.4l-1-6.5h5v6.5H694.8z M683.7,208.2h6.5l1,6.5h-5.3L683.7,208.2z M692.5,208.2h6.4v6.5h-5.4L692.5,208.2z M701,216.9h5
	l-1,6.5h-4L701,216.9L701,216.9z M701,214.7v-6.5h6.4l-1,6.5H701z M709.6,208.2h6.5l-2.2,6.5h-5.3L709.6,208.2z M694.4,199.7h11
	l2.1,6.3h-15.3L694.4,199.7z M686.7,216.9h5l1,6.5h-3.8L686.7,216.9z M711,223.4h-3.7l1-6.5h5L711,223.4z"/>
</svg>
