<?xml version="1.0" encoding="utf-8"?>
<!-- Generator: Adobe Illustrator 19.0.0, SVG Export Plug-In . SVG Version: 6.00 Build 0)  -->
<svg version="1.1" id="Layer_1" xmlns="http://www.w3.org/2000/svg" xmlns:xlink="http://www.w3.org/1999/xlink" x="0px" y="0px"
	 viewBox="-112.6 199.2 22.7 28" style="enable-background:new -112.6 199.2 22.7 28;" xml:space="preserve">
<style type="text/css">
	.st0{fill:#010202;}
</style>
<path id="XMLID_13_" class="st0" d="M-91.5,213.4c-0.8-1.3-1.8-2.5-3-3.5c0.5-1,0.7-2,0.7-3.2c0-2.1-0.8-4-2.2-5.3
	c-1.4-1.4-3.3-2.2-5.3-2.2s-4,0.8-5.3,2.2c-1.4,1.4-2.2,3.3-2.2,5.3c0,1.1,0.3,2.2,0.7,3.2c-1.2,0.9-2.3,2.1-3,3.5
	c-0.9,1.7-1.5,3.6-1.5,5.6v8.2h22.7V219C-90.1,217-90.6,215.1-91.5,213.4z M-105.2,203c1-1,2.3-1.6,3.8-1.6s2.8,0.6,3.8,1.6
	s1.6,2.3,1.6,3.8c0,1.1-0.3,2.1-0.8,2.9l0,0c-0.2,0.3-0.4,0.5-0.6,0.8c-0.4,0.4-0.8,0.7-1.3,1c-0.8,0.4-1.7,0.7-2.6,0.7
	c-1,0-1.8-0.2-2.6-0.7c-0.8-0.4-1.4-1-1.9-1.8l0,0c-0.5-0.8-0.8-1.8-0.8-2.9C-106.8,205.3-106.2,204-105.2,203z M-92.2,225.1h-18.4
	V219c0-1.7,0.4-3.2,1.2-4.5c0.6-1,1.4-2,2.3-2.7c0.6,0.7,1.2,1.2,2,1.6c1.1,0.6,2.3,1,3.7,1c1.3,0,2.6-0.3,3.7-1
	c0.8-0.4,1.4-1,2-1.6c0.9,0.7,1.7,1.7,2.3,2.7c0.8,1.3,1.2,2.9,1.2,4.5V225.1L-92.2,225.1z"/>
</svg>
