<svg xmlns="http://www.w3.org/2000/svg" width="478" height="163" viewBox="214 -72 478 163"><path fill="#FFF" d="M299.2-12.4h-6V33h6c15.7 0 20.1-7.7 20.1-22.7s-4.2-22.7-20.1-22.7zM500.8 30.1c0 3.9 3.4 6.1 7.9 6.1 7.3 0 11.9-6.7 11.9-13.2-2.5-.1-5.2-.3-8.1-.3-6.6 0-11.7 2.1-11.7 7.4z"/><path fill="#FFF" d="M686.7 9.2c0-42-34.2-76.2-76.2-76.2H295.2c-42 0-76.2 34.2-76.2 76.2s34.2 76.2 76.2 76.2h315.4c42 0 76.1-34.2 76.1-76.2zM298.8 47.8h-21.3c-1.3 0-2.3-1.2-2.3-2.7v-69.8c0-1.5 1-2.7 2.3-2.7h21.3c22.9 0 38.9 8.2 38.9 37.3.1 28.1-16.4 37.9-38.9 37.9zm61.3-25.4v22.8c0 1.5-1 2.6-2.3 2.6h-11.7c-1.3 0-2.3-1.2-2.3-2.6V-5.4c0-1.5 1-2.6 2.3-2.6h11.7c1.3 0 2.3 1.2 2.3 2.6v4.5c6.3-10 16.6-9 22-6.9.8.3 1.3 1.2 1 2.1l-3.4 10.3c-.4 1.1-1.6 1.7-2.8 1.4-8.2-2.3-16.8 2.2-16.8 16.4zm18.4 26.4c-4.4 0-8-3.7-8-8.3 0-4.6 3.6-8.3 8-8.3s8 3.7 8 8.3c0 4.5-3.6 8.3-8 8.3zm97.5-1h-12.6c-1.3 0-2.4-.8-2.6-2.3L456.6-.2 444 45.5c-.3 1.2-.9 2.3-2.3 2.3h-10.9c-1.3 0-1.9-1.1-2.3-2.3L416.1-.2l-4.9 45.7c-.1 1.5-1.3 2.3-2.6 2.3h-11.9c-1.3 0-2.2-.8-2.1-2.3l6.4-70.1c.1-1.5 1.3-2.6 2.6-2.6H421c1.3 0 2.6 1.2 3.1 2.6l12.3 44.5 12.3-44.5c.4-1.5 1.8-2.6 3.1-2.6h17.3c1.3 0 2.4 1.2 2.6 2.6l6.4 70.1c.1 1.5-.8 2.3-2.1 2.3zm62.5-13.2v10.7c0 1.4-1.1 2.5-2.5 2.5h-11.9c-1.4 0-2.6-1.2-2.6-2.6V39h-.2c-4.4 7-9.7 10.1-17.6 10.1-11 0-20.8-5.5-20.8-17.6 0-17.1 18.5-19.1 28.7-19.1 3.1 0 6.5.3 9 .8-.1-7.6-5.8-9.7-12.7-9.7-5.7 0-11.1.9-16.2 3.4-.6.3-1.6-.4-1.6-1.1l-.3-9.8c0-.9.5-1.7 1.3-2 6.4-2.4 13.2-3.4 20.8-3.4 14.2 0 26.5 6.1 26.5 23.2v20.8zm59.9 13.2h-14c-1.5 0-2.4-.7-3.3-1.9l-9.9-13.7-9.9 13.7c-.9 1.2-1.8 1.9-3.3 1.9h-14c-1.4 0-2-1.5-1-2.6l19-26.1-18.2-25C543-7 543.6-8 545-8h13.8c1.5 0 2.3.2 3.4 1.7l9 12.3 9-12.3c1.1-1.5 1.9-1.7 3.4-1.7h13.8c1.5 0 2 1 1.3 2.1l-18.2 25 19 26.1c.8 1.2.3 2.6-1.1 2.6zM635.2-16h-11.6v11.6c0 4.1-3.4 7.5-7.5 7.5s-7.5-3.4-7.5-7.5V-16H597c-4.1 0-7.5-3.4-7.5-7.5s3.4-7.5 7.5-7.5h11.6v-11.6c0-4.1 3.4-7.5 7.5-7.5s7.5 3.4 7.5 7.5V-31h11.6c4.1 0 7.5 3.4 7.5 7.5s-3.3 7.5-7.5 7.5z"/><path fill="#A7A8AA" d="M610.6-72H295.2C250.4-72 214-35.6 214 9.2s36.4 81.2 81.2 81.2h315.4c44.8 0 81.2-36.4 81.2-81.2S655.3-72 610.6-72zM295.2 85.4c-42 0-76.2-34.2-76.2-76.2S253.2-67 295.2-67h315.4c42 0 76.2 34.2 76.2 76.2s-34.2 76.2-76.2 76.2H295.2z"/><path fill="#78BE20" d="M635.2-30.9h-11.6v-11.6c0-4.1-3.4-7.5-7.5-7.5s-7.5 3.4-7.5 7.5v11.6H597c-4.1 0-7.5 3.4-7.5 7.5s3.4 7.5 7.5 7.5h11.6v11.6c0 4.1 3.4 7.5 7.5 7.5s7.5-3.4 7.5-7.5V-16h11.6c4.1 0 7.5-3.4 7.5-7.5s-3.3-7.4-7.5-7.4z"/><path fill="#E4002B" d="M298.8-27.3h-21.3c-1.3 0-2.3 1.2-2.3 2.7v69.8c0 1.5 1 2.7 2.3 2.7h21.3c22.4 0 38.9-9.8 38.9-37.9.1-29.1-16-37.3-38.9-37.3zm.4 60.3h-6v-45.4h6c15.9 0 20.1 7.7 20.1 22.7 0 14.9-4.4 22.7-20.1 22.7zM377 6c1.2.3 2.4-.3 2.8-1.4l3.4-10.3c.3-.9-.2-1.8-1-2.1-5.4-2-15.7-3.1-22 6.9v-4.5c0-1.5-1-2.6-2.3-2.6h-11.7c-1.3 0-2.3 1.2-2.3 2.6v50.6c0 1.5 1 2.6 2.3 2.6h11.7c1.3 0 2.3-1.2 2.3-2.6V22.4C360.1 8.2 368.7 3.7 377 6zM471.7-24.6c-.1-1.5-1.3-2.6-2.6-2.6h-17.3c-1.3 0-2.7 1.2-3.1 2.6l-12.3 44.5L424-24.6c-.4-1.5-1.8-2.6-3.1-2.6h-17.3c-1.3 0-2.4 1.2-2.6 2.6l-6.4 70.1c-.1 1.5.8 2.3 2.1 2.3h11.9c1.3 0 2.4-.8 2.6-2.3l4.9-45.7 12.6 45.7c.3 1.2.9 2.3 2.3 2.3h10.9c1.4 0 1.9-1.1 2.3-2.3L456.8-.2l4.2 45.7c.1 1.5 1.3 2.3 2.6 2.3H476c1.3 0 2.2-.8 2.1-2.3l-6.4-70.1z"/><ellipse fill="#E4002B" cx="378.5" cy="40.4" rx="8" ry="8.3"/><path fill="#E4002B" d="M580.4 19.1l18.2-25c.7-1.1.2-2.1-1.3-2.1h-13.8c-1.5 0-2.3.2-3.4 1.7l-9 12.3-9-12.3C561-7.8 560.2-8 558.7-8H545c-1.5 0-2 1-1.3 2.1l18.2 25-19 26.1c-.9 1.2-.4 2.6 1 2.6h14c1.5 0 2.4-.7 3.3-1.9l9.9-13.7 9.9 13.7c.9 1.2 1.8 1.9 3.3 1.9h14c1.4 0 2-1.5 1-2.6l-18.9-26.1zM512-9.5c-7.7 0-14.4 1-20.8 3.4-.8.3-1.3 1.1-1.3 2l.2 9.8c0 .7 1 1.4 1.6 1.1 5-2.5 10.5-3.4 16.2-3.4 6.9 0 12.6 2 12.7 9.7-2.5-.4-5.9-.8-9-.8-10.2 0-28.7 2-28.7 19.1 0 12.2 9.8 17.6 20.8 17.6 7.9 0 13.2-3.1 17.6-10.1h.2v6.2c0 1.4 1.2 2.6 2.6 2.6H536c1.4 0 2.5-1.1 2.5-2.5V13.8c0-17.1-12.3-23.3-26.5-23.3zm-3.3 45.8c-4.5 0-7.9-2.3-7.9-6.1 0-5.4 5.1-7.4 11.6-7.4 2.9 0 5.7.2 8.1.3 0 6.5-4.6 13.2-11.8 13.2z"/></svg>