<?xml version="1.0" encoding="UTF-8" standalone="no"?>
<svg
   xmlns:dc="http://purl.org/dc/elements/1.1/"
   xmlns:cc="http://creativecommons.org/ns#"
   xmlns:rdf="http://www.w3.org/1999/02/22-rdf-syntax-ns#"
   xmlns:svg="http://www.w3.org/2000/svg"
   xmlns="http://www.w3.org/2000/svg"
   viewBox="0 0 189.89333 72.306664"
   height="72.306664"
   width="189.89333"
   xml:space="preserve"
   id="svg2"
   version="1.1"><metadata
     id="metadata8"><rdf:RDF><cc:Work
         rdf:about=""><dc:format>image/svg+xml</dc:format><dc:type
           rdf:resource="http://purl.org/dc/dcmitype/StillImage" /></cc:Work></rdf:RDF></metadata><defs
     id="defs6" /><g
     transform="matrix(1.3333333,0,0,-1.3333333,0,72.306667)"
     id="g10"><g
       transform="scale(0.1)"
       id="g12"><path
         id="path14"
         style="fill:#064365;fill-opacity:1;fill-rule:nonzero;stroke:none"
         d="m 714.023,370.305 c 0,12.226 -7.578,17.039 -22.043,17.039 -2.41,0 -11.882,-0.332 -13.953,-0.508 v -35.117 c 1.895,-0.188 12.051,-0.352 13.953,-0.352 15.325,0 22.043,5.684 22.043,17.383 z M 691.98,327.09 c -4.128,0 -9.644,0.344 -13.953,0.508 v -41.836 c 0,-1.895 -1.543,-3.438 -3.437,-3.438 h -22.219 c -1.891,0 -3.445,1.367 -3.445,3.262 v 115.703 c 0,5.859 2.422,7.402 7.754,8.274 8.781,1.375 22.558,2.234 34.953,2.234 26.004,0 51.66,-9.121 51.66,-41.492 v -1.555 c 0,-32.187 -25.656,-41.66 -51.313,-41.66" /><path
         id="path16"
         style="fill:#064365;fill-opacity:1;fill-rule:nonzero;stroke:none"
         d="m 824.57,359.297 h -1.367 c -8.437,0 -15.848,-2.598 -22.219,-6.035 v -67.324 c 0,-1.895 -1.55,-3.614 -3.445,-3.614 h -20.851 c -1.883,0 -3.602,1.719 -3.602,3.614 v 91.601 c 0,1.895 1.555,3.438 3.437,3.438 h 20.497 c 1.898,0 3.449,-1.543 3.449,-3.438 v -3.437 c 6.367,5.332 14.98,8.242 23.242,8.242 1.902,0 3.445,-1.543 3.445,-3.438 v -16.347 c 0,-1.563 -1.035,-3.262 -2.586,-3.262" /><path
         id="path18"
         style="fill:#064365;fill-opacity:1;fill-rule:nonzero;stroke:none"
         d="m 902.93,324.504 h -9.825 c -12.05,0 -15.144,-4.133 -15.144,-12.57 v -1.563 c 0,-7.226 3.621,-8.594 10.848,-8.594 5.168,0 9.98,1.719 14.121,3.789 z m 23.933,-42.18 h -19.285 c -1.894,0 -3.445,1.543 -3.445,3.438 v 2.754 c -6.711,-4.825 -13.606,-7.735 -23.938,-7.735 -14.992,0 -29.441,7.227 -29.441,29.59 v 1.563 c 0,20.156 12.906,29.101 42.351,29.101 h 9.305 v 6.192 c 0,9.824 -4.82,11.875 -12.918,11.875 -11.023,0 -23.242,-0.684 -28.586,-1.192 h -0.855 c -1.731,0 -3.11,0.852 -3.11,3.086 v 13.945 c 0,1.907 1.204,3.282 3.274,3.789 6.379,1.563 18.437,3.614 29.797,3.614 24.793,0 40.301,-9.973 40.301,-35.117 v -61.465 c 0,-1.895 -1.543,-3.438 -3.45,-3.438" /><path
         id="path20"
         style="fill:#064365;fill-opacity:1;fill-rule:nonzero;stroke:none"
         d="m 1025.36,348.438 c 0,7.05 -3.09,12.39 -15.32,12.39 -12.227,0 -15.677,-5.34 -15.677,-12.39 v -1.387 c 0,-5.852 2.578,-12.051 15.677,-12.051 12.05,0 15.32,4.656 15.32,12.051 z m 0.87,-71.797 c 0,3.281 -2.25,5.507 -17.74,8.945 l -12.748,2.754 c -2.058,-2.918 -3.445,-5.684 -3.445,-11.699 v -1.387 c 0,-5.848 3.965,-8.77 17.223,-8.77 14.12,0 16.71,3.594 16.71,8.77 z m 27.88,86.25 -5.33,-1.719 c 2.07,-3.086 3.79,-8.613 3.79,-12.734 v -1.387 c 0,-22.383 -15.68,-32.188 -42.53,-32.188 -8.1,0 -14.474,1.211 -17.911,2.578 -1.895,-1.191 -2.41,-2.402 -2.41,-3.953 0,-2.754 1.035,-3.957 5.164,-4.816 l 19.457,-4.317 c 29.97,-6.542 40.29,-11.191 40.29,-27.714 v -1.387 c 0,-18.926 -14.81,-28.066 -45.11,-28.066 -28.582,0 -43.739,10 -43.739,28.066 v 1.387 c 0,7.05 2.918,13.601 10.332,19.277 -6.203,3.457 -8.789,10.332 -8.789,16.016 0,6.367 3.274,11.203 7.578,14.64 -5.507,4.813 -7.922,13.602 -7.922,20.477 v 1.387 c 0,19.453 12.922,32.539 43.06,32.539 h 42.87 c 2.4,0 4.3,-2.071 4.3,-4.473 v -9.813 c 0,-2.414 -1.03,-3.097 -3.1,-3.8" /><path
         id="path22"
         style="fill:#064365;fill-opacity:1;fill-rule:nonzero;stroke:none"
         d="m 1172.58,282.324 h -19.3 c -1.89,0 -3.44,1.543 -3.44,3.438 v 4.14 c -9.47,-6.718 -17.05,-8.964 -28.06,-8.964 -24.97,0 -30.48,17.39 -30.48,39.101 v 57.324 c 0,1.895 1.73,3.614 3.62,3.614 h 20.83 c 1.89,0 3.44,-1.719 3.44,-3.614 v -57.324 c 0,-12.059 2.24,-16.016 12.74,-16.016 5,0 10.34,2.403 16.19,5.508 v 67.832 c 0,1.895 1.55,3.614 3.44,3.614 h 20.84 c 1.89,0 3.61,-1.719 3.61,-3.614 v -91.601 c 0,-1.895 -1.56,-3.438 -3.43,-3.438" /><path
         id="path24"
         style="fill:#064365;fill-opacity:1;fill-rule:nonzero;stroke:none"
         d="m 1266.05,340.859 c 0,12.746 -5.85,19.121 -15.49,19.121 -9.47,0 -15.83,-6.542 -15.83,-19.121 v -0.683 h 31.32 z m 23.6,-17.91 h -54.92 v -0.332 c 0,-9.824 4.12,-18.789 17.72,-18.789 10.85,0 26.18,0.879 33.07,1.563 0.16,0 0.34,0 0.52,0 1.88,0 3.26,-0.86 3.26,-2.754 v -13.086 c 0,-2.754 -0.69,-3.965 -3.62,-4.649 -11.01,-2.754 -20.32,-4.121 -35.29,-4.121 -20.84,0 -43.22,11.004 -43.22,44.239 v 12.05 c 0,27.715 16.19,45.274 43.55,45.274 28.24,0 42.54,-19.278 42.54,-45.274 v -9.98 c 0,-2.586 -1.38,-4.141 -3.61,-4.141" /><path
         id="path26"
         style="fill:#064365;fill-opacity:1;fill-rule:nonzero;stroke:none"
         d="m 691.98,235.176 c -0.347,1.719 -0.691,2.597 -2.234,2.597 -1.555,0 -2.07,-0.878 -2.422,-2.597 l -10.5,-47.52 h 25.664 z m 49.075,-102.442 h -24.102 c -1.726,0 -3.105,1.368 -3.457,3.106 l -6.191,28.234 h -35.301 l -6.203,-28.234 c -0.34,-1.738 -1.719,-3.106 -3.438,-3.106 h -24.109 c -1.723,0 -2.934,1.036 -2.934,2.754 0,0.176 0.176,0.508 0.176,0.86 l 25.664,106.738 c 3.957,16.543 16.699,19.121 28.586,19.121 11.875,0 24.453,-2.578 28.406,-19.121 l 25.664,-106.738 c 0,-0.352 0.168,-0.684 0.168,-0.86 0,-1.718 -1.203,-2.754 -2.929,-2.754" /><path
         id="path28"
         style="fill:#064365;fill-opacity:1;fill-rule:nonzero;stroke:none"
         d="m 796.848,132.734 h -20.996 c -1.907,0 -3.457,1.543 -3.457,3.438 v 91.777 c 0,1.895 1.55,3.438 3.457,3.438 h 20.996 c 1.89,0 3.445,-1.543 3.445,-3.438 v -91.777 c 0,-1.895 -1.555,-3.438 -3.445,-3.438 z m 0.691,109.844 h -22.383 c -1.894,0 -3.445,1.555 -3.445,3.438 v 16.015 c 0,1.907 1.551,3.457 3.445,3.457 h 22.383 c 1.895,0 3.445,-1.55 3.445,-3.457 v -16.015 c 0,-1.883 -1.55,-3.438 -3.445,-3.438" /><path
         id="path30"
         style="fill:#064365;fill-opacity:1;fill-rule:nonzero;stroke:none"
         d="m 893.977,209.688 h -1.387 c -8.442,0 -15.844,-2.579 -22.207,-6.016 v -67.324 c 0,-1.895 -1.555,-3.614 -3.442,-3.614 h -20.836 c -1.894,0 -3.617,1.719 -3.617,3.614 v 91.601 c 0,1.895 1.543,3.438 3.442,3.438 h 20.496 c 1.887,0 3.437,-1.543 3.437,-3.438 v -3.445 c 6.375,5.34 14.992,8.269 23.25,8.269 1.899,0 3.45,-1.562 3.45,-3.457 v -16.347 c 0,-1.555 -1.036,-3.281 -2.586,-3.281" /><path
         id="path32"
         style="fill:#064365;fill-opacity:1;fill-rule:nonzero;stroke:none"
         d="m 981.277,188.691 c 0,12.227 -3.101,20.997 -15.332,20.997 -5.679,0 -10.84,-0.333 -14.121,-0.86 v -53.711 c 4.145,-0.527 10,-1.035 14.121,-1.035 12.231,0 15.332,9.121 15.332,21.172 z m -15.332,-57.5 c -3.433,0 -9.121,0.508 -14.121,1.211 v -29.804 c 0,-1.895 -1.551,-3.4378 -3.433,-3.4378 h -20.832 c -1.895,0 -3.621,1.5428 -3.621,3.4378 v 120.703 c 0,2.734 0.691,3.965 5.339,4.98 9.817,2.422 23.418,4.492 36.668,4.492 27.903,0 43.235,-16.191 43.235,-44.082 v -13.437 c 0,-27.02 -14.121,-44.063 -43.235,-44.063" /><path
         id="path34"
         style="fill:#064365;fill-opacity:1;fill-rule:nonzero;stroke:none"
         d="m 1092.51,188.008 c 0,13.937 -5.34,20.996 -15.33,20.996 -9.98,0 -15.49,-7.059 -15.49,-20.996 v -12.051 c 0,-13.953 5.51,-21.18 15.49,-21.18 9.99,0 15.33,7.227 15.33,21.18 z m -15.33,-56.817 c -27.88,0 -43.22,17.383 -43.22,44.766 v 12.051 c 0,27.363 15.34,44.765 43.22,44.765 27.9,0 43.04,-17.402 43.04,-44.765 v -12.051 c 0,-27.383 -15.14,-44.766 -43.04,-44.766" /><path
         id="path36"
         style="fill:#064365;fill-opacity:1;fill-rule:nonzero;stroke:none"
         d="m 1203.38,209.688 h -1.39 c -8.43,0 -15.83,-2.579 -22.19,-6.016 v -67.324 c 0,-1.895 -1.56,-3.614 -3.45,-3.614 h -20.83 c -1.9,0 -3.63,1.719 -3.63,3.614 v 91.601 c 0,1.895 1.56,3.438 3.46,3.438 h 20.49 c 1.89,0 3.44,-1.543 3.44,-3.438 v -3.445 c 6.37,5.34 14.98,8.269 23.24,8.269 1.89,0 3.45,-1.562 3.45,-3.457 v -16.347 c 0,-1.555 -1.05,-3.281 -2.59,-3.281" /><path
         id="path38"
         style="fill:#064365;fill-opacity:1;fill-rule:nonzero;stroke:none"
         d="m 1290.84,132.559 c -5.17,-0.86 -8.6,-1.368 -13.59,-1.368 -18.94,0 -28.93,4.981 -28.93,29.434 v 49.934 l -13.78,2.234 c -1.88,0.352 -3.61,1.719 -3.61,3.613 v 11.367 c 0,1.895 1.73,3.614 3.61,3.614 h 13.78 v 14.121 c 0,1.894 1.54,3.097 3.45,3.437 l 21,3.614 c 0.18,0 0.35,0 0.51,0 1.73,0 3.11,-1.2 3.11,-2.911 v -18.261 h 14.11 c 1.9,0 3.45,-1.543 3.45,-3.438 v -13.945 c 0,-1.895 -1.55,-3.445 -3.45,-3.445 h -14.11 v -50.09 c 0,-6.895 0.5,-8.106 5.67,-8.106 h 8.44 c 2.23,0 3.62,-1.035 3.62,-2.929 v -13.438 c 0,-1.719 -1.21,-3.086 -3.28,-3.437" /><path
         id="path40"
         style="fill:#ed1834;fill-opacity:1;fill-rule:nonzero;stroke:none"
         d="m 335.879,360.195 c -14.578,-1.582 -18.145,5.821 -8.981,15.723 8.469,9.121 25.032,17.207 37.704,18.77 12.8,1.562 18.308,-3.946 11.738,-13.036 -7.219,-9.914 -25.672,-19.894 -40.461,-21.457" /><path
         id="path42"
         style="fill:#ed1834;fill-opacity:1;fill-rule:nonzero;stroke:none"
         d="m 144.512,130.02 c -25.789,0.058 -16.879,31.621 14.234,65.097 26.734,28.77 62.051,50.078 82.508,51.192 20.832,1.211 22.773,-18.86 1.133,-48.614 -25.36,-34.793 -71.395,-67.754 -97.875,-67.675" /><path
         id="path44"
         style="fill:#ed1834;fill-opacity:1;fill-rule:nonzero;stroke:none"
         d="m 293.945,129.648 c -29.918,0.059 -32.363,33.887 -10.097,69.395 18.945,30.156 50.523,52.48 73.359,53.73 23.398,1.348 34.133,-19.55 21.824,-50.8 C 364.48,164.98 324.82,129.57 293.945,129.648" /><path
         id="path46"
         style="fill:#ed1834;fill-opacity:1;fill-rule:nonzero;stroke:none"
         d="m 504.199,378.203 c -17.004,-1.758 -28.176,5.449 -25.488,15.246 2.461,8.953 15.891,17.117 30.32,18.875 14.614,1.817 26.66,-3.398 26.66,-12.304 0,-9.786 -14.246,-19.942 -31.492,-21.817" /><path
         id="path48"
         style="fill:#064365;fill-opacity:1;fill-rule:nonzero;stroke:none"
         d="m 487.449,260.078 c -3.582,-0.254 -7.215,-0.906 -10.855,-1.902 -9.653,-2.309 -20.637,0.996 -41.235,21.797 -20.879,21.043 -16.433,30.593 -14.546,34.297 2.253,4.453 14.546,6.453 22.332,6.589 7.539,0.059 16.32,-0.457 17.519,-4.902 3.074,-11.094 15.117,-18.769 32.246,-17.5 23.399,1.699 42.781,18.945 42.781,36.406 0,15.43 -15.496,25.137 -34.324,23.25 -14.043,-1.375 -27.668,-8.972 -35.32,-19.265 -4.262,-5.625 -11.164,-5.84 -19.516,-6.504 -8.711,-0.692 -16.941,-0.84 -17.312,3.437 -0.742,6.223 -5.078,10.664 -11.914,12.383 -3.582,0.723 -2.703,7.52 0,12.149 2.519,4.277 5.019,8.984 11.172,11.171 11.601,4.024 21.765,11.614 24.648,19.004 3.563,9.043 -5.012,14.434 -18.691,12.754 -13.489,-1.699 -28.614,-9.793 -34.258,-18.828 -4.141,-6.523 -2.383,-11.973 3.816,-14.375 3.711,-1.562 3.156,-7.168 0.578,-11.797 -2.578,-4.512 -5.215,-10.207 -12.617,-13.164 -9.719,-3.828 -19.348,-10.176 -26.418,-17.773 -3.191,-3.555 -11.972,-3.184 -18.262,-3.184 -8.332,0 -13.351,0.742 -12.785,3.008 2.438,9.043 -3.34,14.172 -15.254,13.066 -15.625,-1.582 -38.41,-13.828 -52.257,-28.703 -15.434,-16.609 -14.5,-30.476 4.199,-29.148 13.929,1.074 36.965,13.281 45.558,21.523 5.141,4.883 12.914,7.766 22.266,8.137 8.598,0.457 16.566,0.613 15.766,-4.27 -1.778,-11.093 6.015,-18.875 21.511,-17.754 5.317,0.391 10.852,1.739 16.172,3.907 4.399,1.699 15.93,0.566 33.012,-29.727 11.844,-21.035 12.676,-33.867 7.832,-43.32 -2.871,-5.449 -5.195,-11.192 -6.887,-17.363 -10.429,-37.754 7.344,-74.219 42.539,-74.278 36.321,-0.136 66.746,38.125 66.746,77.735 0,32.871 -21.882,54.57 -48.242,53.144" /></g></g></svg>