<svg xmlns="http://www.w3.org/2000/svg" width="25.3" height="18" viewBox="-400.7 289 25.3 18">
  <g fill="white">
    <path
      d="M-392.1 302.8c.4 0 .8-.3.8-.8v-3.3c0-.4-.3-.8-.8-.8-.4 0-.7.3-.8.8v3.3c.1.5.4.8.8.8zM-388 302.8c.4 0 .8-.3.8-.8v-3.3c0-.4-.3-.7-.8-.8-.4 0-.8.3-.8.8v3.3c0 .5.4.8.8.8zM-384 302.8c.4 0 .8-.3.8-.8v-3.3c0-.4-.3-.8-.8-.8-.4 0-.7.3-.8.8v3.3c0 .5.4.8.8.8z"
    />
    <path
      d="M-376.1 294.6h-5.8l-3-5.2c-.2-.4-.6-.5-1-.4-.4.2-.5.6-.4 1 0 0 0 .1.1.1l2.5 4.4h-9l2.6-4.4c.2-.4.1-.8-.3-1-.4-.2-.8-.1-1 .3l-3 5.2h-5.5c-.4 0-.8.3-.8.8 0 .4.3.8.8.8h1l3.2 10.3c.1.3.4.5.7.5h13.9c.3 0 .6-.2.7-.5l3.2-10.3h1c.4 0 .8-.3.8-.8.1-.5-.3-.8-.7-.8zm-5.5 10.8h-12.8l-2.9-9.3h18.7l-3 9.3z"
    />
  </g>
</svg>
